<?xml version="1.0" encoding="UTF-8"?>
<svg width="26px" height="26px" viewBox="0 0 26 26" version="1.1" xmlns="http://www.w3.org/2000/svg" xmlns:xlink="http://www.w3.org/1999/xlink">
    <!-- Generator: sketchtool 59.1 (101010) - https://sketch.com -->
    <title>0318E561-2957-4F5A-B6C9-713F711DE540</title>
    <desc>Created with sketchtool.</desc>
    <g id="Page-1" stroke="none" stroke-width="1" fill="none" fill-rule="evenodd" stroke-linecap="round" stroke-linejoin="round">
        <g id="Ongoing-meeting-9---Additional-buttons" transform="translate(-598.000000, -337.000000)" stroke="#3E3E40" stroke-width="2">
            <g id="Buttons" transform="translate(200.000000, 80.000000)">
                <g id="Buttons-group" transform="translate(381.000000, 240.000000)">
                    <g id="Disabled">
                        <g id="ic_audio" transform="translate(20.000000, 22.930000)">
                            <polygon id="Path" points="9 0.07 4 4.07 0 4.07 0 10.07 4 10.07 9 14.07"></polygon>
                            <path d="M17.07,1.63424829e-13 C20.9738194,3.90499851 20.9738194,10.2350015 17.07,14.14 M13.54,3.53 C15.4919097,5.48249926 15.4919097,8.64750074 13.54,10.6" id="Shape"></path>
                        </g>
                    </g>
                </g>
            </g>
        </g>
    </g>
	<g id="Page-1" stroke="none" stroke-width="1" fill="none" fill-rule="evenodd">
        <g id="Ongoing-meeting-9---Additional-buttons" transform="translate(-598.000000, -337.000000)">
            <g id="Buttons" transform="translate(200.000000, 80.000000)">
                <g id="Buttons-group" transform="translate(381.000000, 240.000000)">
                    <g id="Disabled">
                        <g id="ic_crossed_line" transform="translate(17.000000, 17.000000)">
                            <path d="M8.50874926e-13,24.7928932 L8.50874926e-13,20.6666667 L20.6666667,-5.86197757e-14 L24.7928932,-5.86197757e-14 C25.0690356,-5.86197757e-14 25.2928932,0.223857625 25.2928932,0.5 C25.2928932,0.632608245 25.2402148,0.759785201 25.1464466,0.853553391 L0.853553391,25.1464466 C0.658291245,25.3417088 0.341708755,25.3417088 0.146446609,25.1464466 C0.0526784202,25.0526784 8.50874926e-13,24.9255015 8.50874926e-13,24.7928932 Z" id="whitespace" fill="#FFFFFF"></path>
                            <line x1="25" y1="1" x2="1" y2="25" id="red-line" stroke="#CC2944" stroke-width="2" stroke-linecap="round" stroke-linejoin="round"></line>
                        </g>
                    </g>
                </g>
            </g>
        </g>
    </g>
</svg>