<?xml version="1.0" encoding="UTF-8"?>
<svg width="14px" height="14px" viewBox="0 0 14 14" version="1.1" xmlns="http://www.w3.org/2000/svg" xmlns:xlink="http://www.w3.org/1999/xlink">
    <!-- Generator: sketchtool 59.1 (101010) - https://sketch.com -->
    <title>527CF791-306E-4941-AF1A-86DCFAFFA360</title>
    <desc>Created with sketchtool.</desc>
    <g id="Page-1" stroke="none" stroke-width="1" fill="none" fill-rule="evenodd">
        <g id="Ongoing-meeting-7---Sidebar-dropdowns" transform="translate(-170.000000, -523.000000)">
            <g id="Dropdown" transform="translate(150.000000, 493.000000)">
                <g id="Links" transform="translate(20.000000, 28.000000)">
                    <g id="Link-2">
                        <g id="Icon" transform="translate(0.000000, 2.000000)">
                            <rect id="icon-space" x="0" y="0" width="14" height="14"></rect>
                            <path d="M12.5,6.59439583 L6.82667504,12.3909387 C5.37936061,13.8696871 3.03280027,13.8696871 1.58548583,12.3909387 C0.138171391,10.9121903 0.138171391,8.51466544 1.58548583,7.03591705 L7.25881079,1.23937417 C8.22368708,0.253541932 9.78806062,0.253541944 10.7529369,1.2393742 C11.7178132,2.22520645 11.7178132,3.82355634 10.7529369,4.80938861 L5.0734386,10.6059315 C4.59100046,11.0988476 3.80881368,11.0988476 3.32637553,10.6059315 C2.84393739,10.1130154 2.84393739,9.3138404 3.32637553,8.82092427 L8.56756475,3.47221006" id="icon" stroke="#616166" stroke-linecap="round" stroke-linejoin="round"></path>
                        </g>
                    </g>
                </g>
            </g>
        </g>
    </g>
</svg>