<?xml version="1.0" encoding="UTF-8"?>
<svg width="14px" height="10px" viewBox="0 0 14 10" version="1.1" xmlns="http://www.w3.org/2000/svg" xmlns:xlink="http://www.w3.org/1999/xlink">
    <!-- Generator: sketchtool 59.1 (101010) - https://sketch.com -->
    <title>CE535310-DA57-4F34-B37F-F8ACADECA89A</title>
    <desc>Created with sketchtool.</desc>
    <g id="Page-1" stroke="none" stroke-width="1" fill="none" fill-rule="evenodd">
        <g id="Ongoing-meeting-4---Settings" transform="translate(-452.000000, -552.000000)" fill="#616166" fill-rule="nonzero">
            <g id="Dropdown" transform="translate(420.000000, 100.000000)">
                <g id="Setup" transform="translate(20.000000, 274.000000)">
                    <g id="Video-settings" transform="translate(0.000000, 138.000000)">
                        <g id="Input" transform="translate(0.000000, 27.000000)">
                            <path d="M20,13 C21.1045695,13 22,13.8954305 22,15 L22,16.584 L24.2928932,14.2928932 C24.9228581,13.6629284 26,14.1090951 26,15 L26,21 C26,21.8909049 24.9228581,22.3370716 24.2928932,21.7071068 L22,19.415 L22,21 C22,22.1045695 21.1045695,23 20,23 L14,23 C12.8954305,23 12,22.1045695 12,21 L12,15 C12,13.8954305 12.8954305,13 14,13 L20,13 Z M20,14 L14,14 C13.4477153,14 13,14.4477153 13,15 L13,21 C13,21.5522847 13.4477153,22 14,22 L20,22 C20.5522847,22 21,21.5522847 21,21 L21,15 C21,14.4477153 20.5522847,14 20,14 Z M25,15 L22,18 L25,21 L25,15 Z" id="ic_camera_small"></path>
                        </g>
                    </g>
                </g>
            </g>
        </g>
    </g>
</svg>