<?xml version="1.0" encoding="UTF-8"?>
<svg width="10px" height="12px" viewBox="0 0 10 12" version="1.1" xmlns="http://www.w3.org/2000/svg" xmlns:xlink="http://www.w3.org/1999/xlink">
    <!-- Generator: sketchtool 59.1 (101010) - https://sketch.com -->
    <title>A09B874B-A6E2-4BE9-A469-9E1544A1ABD1</title>
    <desc>Created with sketchtool.</desc>
    <g id="Page-1" stroke="none" stroke-width="1" fill="none" fill-rule="evenodd">
        <g id="Ongoing-meeting-9---Additional-buttons" transform="translate(-180.000000, -636.000000)" fill="#29CC7A">
            <g id="Group-4" transform="translate(165.000000, 530.000000)">
                <g id="Group" transform="translate(0.000000, 70.000000)">
                    <g id="Connection" transform="translate(15.000000, 35.000000)">
                        <path d="M9,1 C9.55228475,1 10,1.44771525 10,2 L10,12 C10,12.5522847 9.55228475,13 9,13 C8.44771525,13 8,12.5522847 8,12 L8,2 C8,1.44771525 8.44771525,1 9,1 Z M5,6 C5.55228475,6 6,6.44771525 6,7 L6,12 C6,12.5522847 5.55228475,13 5,13 C4.44771525,13 4,12.5522847 4,12 L4,7 C4,6.44771525 4.44771525,6 5,6 Z M1,9 C1.55228475,9 2,9.44771525 2,10 L2,12 C2,12.5522847 1.55228475,13 1,13 C0.44771525,13 0,12.5522847 0,12 L0,10 C0,9.44771525 0.44771525,9 1,9 Z" id="ic_connection"></path>
                    </g>
                </g>
            </g>
        </g>
    </g>
</svg>