<?xml version="1.0" encoding="UTF-8"?>
<svg width="14px" height="14px" viewBox="0 0 14 14" version="1.1" xmlns="http://www.w3.org/2000/svg" xmlns:xlink="http://www.w3.org/1999/xlink">
    <!-- Generator: sketchtool 59.1 (101010) - https://sketch.com -->
    <title>3F634848-15E5-4FD0-B9FD-8973C894B4E7</title>
    <desc>Created with sketchtool.</desc>
    <g id="Page-1" stroke="none" stroke-width="1" fill="none" fill-rule="evenodd">
        <g id="Ongoing-meeting-1" transform="translate(-276.000000, -203.000000)" fill="#C8C9CC" fill-rule="nonzero">
            <g id="Sidebar">
                <g id="Participants" transform="translate(0.000000, 69.000000)">
                    <g id="Rows" transform="translate(0.000000, 50.000000)">
                        <g id="Row-3" transform="translate(20.000000, 80.000000)">
                            <g id="Options" transform="translate(256.000000, 4.000000)">
                                <g id="Video">
                                    <path d="M8,2 C9.1045695,2 10,2.8954305 10,4 L10,5.584 L12.2928932,3.29289322 C12.9228581,2.66292836 14,3.10909515 14,4 L14,10 C14,10.8909049 12.9228581,11.3370716 12.2928932,10.7071068 L10,8.415 L10,10 C10,11.1045695 9.1045695,12 8,12 L2,12 C0.8954305,12 0,11.1045695 0,10 L0,4 C0,2.8954305 0.8954305,2 2,2 L8,2 Z M8,3 L2,3 C1.44771525,3 1,3.44771525 1,4 L1,10 C1,10.5522847 1.44771525,11 2,11 L8,11 C8.55228475,11 9,10.5522847 9,10 L9,4 C9,3.44771525 8.55228475,3 8,3 Z M13,4 L10,7 L13,10 L13,4 Z" id="ic_camera_small"></path>
                                </g>
                            </g>
                        </g>
                    </g>
                </g>
            </g>
        </g>
    </g>
	<g id="Page-2" stroke="none" stroke-width="1" fill="none" fill-rule="evenodd" stroke-linecap="round">
        <g id="Ongoing-meeting-1" transform="translate(-296.000000, -203.000000)" stroke="#CB2944" stroke-width="2">
            <g id="Sidebar">
                <g id="Participants" transform="translate(0.000000, 69.000000)">
                    <g id="Rows" transform="translate(0.000000, 50.000000)">
                        <g id="Row-3" transform="translate(20.000000, 80.000000)">
                            <g id="Options" transform="translate(256.000000, 4.000000)">
                                <g id="Mic" transform="translate(20.000000, 0.000000)">
                                    <line x1="1" y1="13" x2="13" y2="1" id="ic_crossed_small"></line>
                                </g>
                            </g>
                        </g>
                    </g>
                </g>
            </g>
        </g>
    </g>
</svg>