<?xml version="1.0" encoding="UTF-8"?>
<svg width="18px" height="18px" viewBox="0 0 18 18" version="1.1" xmlns="http://www.w3.org/2000/svg" xmlns:xlink="http://www.w3.org/1999/xlink">
    <!-- Generator: sketchtool 59.1 (101010) - https://sketch.com -->
    <title>4DC96093-2787-40E2-ACB5-9994A5ABE614</title>
    <desc>Created with sketchtool.</desc>
    <g id="Page-1" stroke="none" stroke-width="1" fill="none" fill-rule="evenodd">
        <g id="Join-_-Skype-for-business" transform="translate(-577.000000, -422.000000)" fill="#F15F22" fill-rule="nonzero">
            <g id="Content" transform="translate(145.000000, 169.000000)">
                <g id="Left" transform="translate(0.000000, 94.000000)">
                    <g id="Step-2" transform="translate(0.000000, 78.000000)">
                        <g id="Mail" transform="translate(45.000000, 68.000000)">
                            <path d="M402,19 C403.656854,19 405,20.3431458 405,22 L405,28 C405,29.6568542 403.656854,31 402,31 L396,31 C394.343146,31 393,29.6568542 393,28 L393,22 C393,20.3431458 394.343146,19 396,19 L402,19 Z M402,21 L396,21 C395.447715,21 395,21.4477153 395,22 L395,28 C395,28.5522847 395.447715,29 396,29 L402,29 C402.552285,29 403,28.5522847 403,28 L403,22 C403,21.4477153 402.552285,21 402,21 Z M389.538462,13 L396.461538,13 C397.807414,13 398.908655,14.0474057 398.994601,15.371557 L399,15.5384615 L399,16.3076923 C399,16.8599771 398.552285,17.3076923 398,17.3076923 C397.487164,17.3076923 397.064493,16.9216521 397.006728,16.4243134 L397,16.3076923 L397,15.5384615 C397,15.2708159 396.804727,15.0487786 396.54888,15.0070476 L396.461538,15 L389.538462,15 C389.270816,15 389.048779,15.1952727 389.007048,15.4511203 L389,15.5384615 L389,22.4615385 C389,22.7291841 389.195273,22.9512214 389.45112,22.9929524 L389.538462,23 L390.307692,23 C390.859977,23 391.307692,23.4477153 391.307692,24 C391.307692,24.5128358 390.921652,24.9355072 390.424313,24.9932723 L390.307692,25 L389.538462,25 C388.192586,25 387.091345,23.9525943 387.005399,22.628443 L387,22.4615385 L387,15.5384615 C387,14.1925861 388.047406,13.0913453 389.371557,13.0053995 L389.538462,13 L396.461538,13 L389.538462,13 Z" id="ic_copy"></path>
                        </g>
                    </g>
                </g>
            </g>
        </g>
    </g>
</svg>