<?xml version="1.0" encoding="UTF-8"?>
<svg width="14px" height="14px" viewBox="0 0 14 14" version="1.1" xmlns="http://www.w3.org/2000/svg" xmlns:xlink="http://www.w3.org/1999/xlink">
    <!-- Generator: sketchtool 59.1 (101010) - https://sketch.com -->
    <title>D4BFA8B8-5BDF-44EC-AE91-705EA4706692</title>
    <desc>Created with sketchtool.</desc>
    <g id="Page-1" stroke="none" stroke-width="1" fill="none" fill-rule="evenodd">
        <g id="Ongoing-meeting-7---Sidebar-dropdowns" transform="translate(-170.000000, -240.000000)">
            <g id="Dropdown" transform="translate(150.000000, 111.000000)">
                <g id="Links" transform="translate(20.000000, 28.000000)">
                    <g id="Link-4" transform="translate(0.000000, 99.000000)">
                        <g id="Icon" transform="translate(0.000000, 2.000000)">
                            <rect id="icon-space" x="0" y="0" width="14" height="14"></rect>
                            <path d="M3.20970461,3.38710056 L3.29289322,3.29289322 C3.65337718,2.93240926 4.22060824,2.90467972 4.61289944,3.20970461 L4.70710678,3.29289322 L7,5.585 L9.29289322,3.29289322 C9.68341751,2.90236893 10.3165825,2.90236893 10.7071068,3.29289322 C11.0976311,3.68341751 11.0976311,4.31658249 10.7071068,4.70710678 L8.415,7 L10.7071068,9.29289322 C11.0675907,9.65337718 11.0953203,10.2206082 10.7902954,10.6128994 L10.7071068,10.7071068 C10.3466228,11.0675907 9.77939176,11.0953203 9.38710056,10.7902954 L9.29289322,10.7071068 L7,8.415 L4.70710678,10.7071068 C4.31658249,11.0976311 3.68341751,11.0976311 3.29289322,10.7071068 C2.90236893,10.3165825 2.90236893,9.68341751 3.29289322,9.29289322 L5.585,7 L3.29289322,4.70710678 C2.93240926,4.34662282 2.90467972,3.77939176 3.20970461,3.38710056 L3.29289322,3.29289322 L3.20970461,3.38710056 Z" id="icon" fill="#CB2944" fill-rule="nonzero"></path>
                        </g>
                    </g>
                </g>
            </g>
        </g>
    </g>
</svg>