<?xml version="1.0" encoding="UTF-8"?>
<svg width="16px" height="4px" viewBox="0 0 16 4" version="1.1" xmlns="http://www.w3.org/2000/svg" xmlns:xlink="http://www.w3.org/1999/xlink">
    <!-- Generator: sketchtool 59.1 (101010) - https://sketch.com -->
    <title>962A59E0-4961-43AD-826D-217A909FAF39</title>
    <desc>Created with sketchtool.</desc>
    <g id="Page-1" stroke="none" stroke-width="1" fill="none" fill-rule="evenodd">
        <g id="Ongoing-meeting-1" transform="translate(-294.000000, -868.000000)" fill="#616166">
            <g id="Sidebar">
                <g id="Chatbox" transform="translate(0.000000, 450.000000)">
                    <g id="Input-field" transform="translate(0.000000, 389.000000)">
                        <path d="M296,29 C297.104569,29 298,29.8954305 298,31 C298,32.1045695 297.104569,33 296,33 C294.895431,33 294,32.1045695 294,31 C294,29.8954305 294.895431,29 296,29 Z M302,29 C303.104569,29 304,29.8954305 304,31 C304,32.1045695 303.104569,33 302,33 C300.895431,33 300,32.1045695 300,31 C300,29.8954305 300.895431,29 302,29 Z M308,29 C309.104569,29 310,29.8954305 310,31 C310,32.1045695 309.104569,33 308,33 C306.895431,33 306,32.1045695 306,31 C306,29.8954305 306.895431,29 308,29 Z" id="ic_dots_hr"></path>
                    </g>
                </g>
            </g>
        </g>
    </g>
</svg>