<?xml version="1.0" encoding="UTF-8"?>
<svg width="21px" height="21px" viewBox="0 0 21 21" version="1.1" xmlns="http://www.w3.org/2000/svg" xmlns:xlink="http://www.w3.org/1999/xlink">
    <!-- Generator: sketchtool 59.1 (101010) - https://sketch.com -->
    <title>AB6068FD-3648-4AA3-ABAA-66655959B881</title>
    <desc>Created with sketchtool.</desc>
    <g id="Page-1" stroke="none" stroke-width="1" fill="none" fill-rule="evenodd" stroke-linecap="round" stroke-linejoin="round">
        <g id="Ongoing-meeting-9---Additional-buttons" transform="translate(-1050.000000, -500.000000)" stroke="#FFFFFF" stroke-width="2">
            <g id="Buttons" transform="translate(200.000000, 80.000000)">
                <g id="Buttons-group" transform="translate(761.000000, 400.000000)">
                    <g id="Hovered" transform="translate(70.000000, 0.000000)">
                        <path d="M20.4571634,34.3846378 L18.5357858,32.2836977 C18.1736503,31.8909205 17.979735,31.3494024 18.0016795,30.7921795 C18.0236239,30.2349565 18.2593943,29.7136709 18.6510684,29.356388 C20.8360112,27.4355637 23.4025432,26.10193 26.144441,25.4626458 C28.6752206,24.8457847 31.2991717,24.8457847 33.8299513,25.4626458 C36.5831688,26.1060755 39.1590601,27.4496087 41.3489423,29.3844005 C41.7394011,29.7405805 41.9749755,30.2598059 41.9981201,30.815242 C42.0212648,31.3706781 41.8298484,31.9111769 41.4706925,32.304776 L39.5493149,34.405716 C38.9126458,35.1155858 37.893365,35.1994757 37.1667437,34.6017349 C36.4707635,34.0180633 35.7166312,33.5223578 34.918732,33.1240738 C34.2746798,32.8046328 33.8595269,32.1045638 33.8555697,31.3312716 L33.8555697,29.5524757 C31.3404216,28.796144 28.6852075,28.796144 26.1700594,29.5524757 L26.1700594,31.3312716 C26.1661022,32.1045638 25.7509493,32.8046328 25.1068971,33.1240738 C24.3089979,33.5223578 23.5548656,34.0180633 22.8588853,34.6017349 C22.1240077,35.2065972 21.0912291,35.113242 20.4571634,34.3846378 Z" id="ic_end_call" transform="translate(30.000000, 30.000000) rotate(45.000000) translate(-30.000000, -30.000000) "></path>
                    </g>
                </g>
            </g>
        </g>
    </g>
</svg>