<?xml version="1.0" encoding="UTF-8"?>
<svg width="20px" height="20px" viewBox="0 0 20 20" version="1.1" xmlns="http://www.w3.org/2000/svg" xmlns:xlink="http://www.w3.org/1999/xlink">
    <!-- Generator: sketchtool 59.1 (101010) - https://sketch.com -->
    <title>2164147E-4B61-44F7-9BF3-C92BB1272C6F</title>
    <desc>Created with sketchtool.</desc>
    <g id="Page-1" stroke="none" stroke-width="1" fill="none" fill-rule="evenodd" stroke-linecap="round" stroke-linejoin="round">
        <g id="Ongoing-meeting-1" transform="translate(-885.000000, -840.000000)" stroke="#FFFFFF" stroke-width="2">
            <g id="Screen" transform="translate(330.000000, 0.000000)">
                <g id="Bottom-buttons" transform="translate(0.000000, 800.000000)">
                    <g id="Centered" transform="translate(236.000000, 20.000000)">
                        <g id="Button-/-Full-screen" transform="translate(299.000000, 0.000000)">
                            <path d="M26,21 L23,21 C21.8954305,21 21,21.8954305 21,23 L21,26 M39,26 L39,23 C39,21.8954305 38.1045695,21 37,21 L34,21 M34,39 L37,39 C38.1045695,39 39,38.1045695 39,37 L39,34 M21,34 L21,37 C21,38.1045695 21.8954305,39 23,39 L26,39 M22,22 L25,25 M35,35 L38,38 M38,22 L35,25 M25,35 L22,38" id="ic_full_screen"></path>
                        </g>
                    </g>
                </g>
            </g>
        </g>
    </g>
</svg>