<?xml version="1.0" encoding="UTF-8"?>
<svg width="22px" height="22px" viewBox="0 0 22 22" version="1.1" xmlns="http://www.w3.org/2000/svg" xmlns:xlink="http://www.w3.org/1999/xlink">
    <!-- Generator: sketchtool 59.1 (101010) - https://sketch.com -->
    <title>A29BCC4D-80B6-411B-9F0F-F64A1AC617AB</title>
    <desc>Created with sketchtool.</desc>
    <g id="Page-1" stroke="none" stroke-width="1" fill="none" fill-rule="evenodd">
        <g id="Join-_-Numeric-only-device" transform="translate(-30.000000, -23.000000)" fill="#C8C9CC" fill-rule="nonzero">
            <g id="Top" transform="translate(0.000000, 19.000000)">
                <g id="Link" transform="translate(30.000000, 4.000000)">
                    <path d="M11,0 C17.0751322,0 22,4.92486775 22,11 C22,17.0751322 17.0751322,22 11,22 C4.92486775,22 0,17.0751322 0,11 C0,4.92486775 4.92486775,0 11,0 Z M11,2 C6.02943725,2 2,6.02943725 2,11 C2,15.9705627 6.02943725,20 11,20 C15.9705627,20 20,15.9705627 20,11 C20,6.02943725 15.9705627,2 11,2 Z M6.29289322,10.2928932 L10.2928932,6.29289322 C10.6834175,5.90236893 11.3165825,5.90236893 11.7071068,6.29289322 C12.0675907,6.65337718 12.0953203,7.22060824 11.7902954,7.61289944 L11.7071068,7.70710678 L9.414,10 L15,10 C15.5128358,10 15.9355072,10.3860402 15.9932723,10.8833789 L16,11 C16,11.5128358 15.6139598,11.9355072 15.1166211,11.9932723 L15,12 L9.414,12 L11.7071068,14.2928932 C12.0675907,14.6533772 12.0953203,15.2206082 11.7902954,15.6128994 L11.7071068,15.7071068 C11.3466228,16.0675907 10.7793918,16.0953203 10.3871006,15.7902954 L10.2928932,15.7071068 L6.29289322,11.7071068 L6.19633458,11.5953066 L6.19633458,11.5953066 L6.12467117,11.4840621 L6.12467117,11.4840621 L6.07122549,11.371336 L6.07122549,11.371336 L6.03584514,11.265993 L6.03584514,11.265993 L6.0110178,11.1484669 L6.0110178,11.1484669 L6.00396641,11.0892501 L6.00018018,10.980824 L6.00018018,10.980824 L6.00396641,10.9107499 L6.00396641,10.9107499 L6.02024007,10.7992742 L6.02024007,10.7992742 L6.04973809,10.6878575 L6.04973809,10.6878575 L6.09367336,10.5767785 L6.09367336,10.5767785 L6.14599545,10.4792912 L6.14599545,10.4792912 L6.21278596,10.3832499 C6.23766884,10.3515341 6.26442691,10.3213595 6.29289322,10.2928932 L10.2928932,6.29289322 L6.29289322,10.2928932 Z" id="ic_go-back"></path>
                </g>
            </g>
        </g>
    </g>
</svg>