<?xml version="1.0" encoding="UTF-8"?>
<svg width="22px" height="22px" viewBox="0 0 22 22" version="1.1" xmlns="http://www.w3.org/2000/svg" xmlns:xlink="http://www.w3.org/1999/xlink">
    <!-- Generator: sketchtool 59.1 (101010) - https://sketch.com -->
    <title>4D134D13-DE94-43A3-97EA-0E216895A5E4</title>
    <desc>Created with sketchtool.</desc>
    <g id="Page-1" stroke="none" stroke-width="1" fill="none" fill-rule="evenodd">
        <g id="Dashboard---2" transform="translate(-542.000000, -536.000000)" fill="#C8C9CC" fill-rule="nonzero">
            <g id="Content" transform="translate(260.000000, 98.000000)">
                <g id="Left">
                    <path d="M293,438 C286.924868,438 282,442.924868 282,449 C282,455.075132 286.924868,460 293,460 C299.075132,460 304,455.075132 304,449 C304,442.924868 299.075132,438 293,438 Z M293,440 C297.970563,440 302,444.029437 302,449 C302,453.970563 297.970563,458 293,458 C288.029437,458 284,453.970563 284,449 C284,444.029437 288.029437,440 293,440 Z M297.707107,448.292893 L293.707107,444.292893 C293.316582,443.902369 292.683418,443.902369 292.292893,444.292893 C291.932409,444.653377 291.90468,445.220608 292.209705,445.612899 L292.292893,445.707107 L294.586,448 L289,448 C288.487164,448 288.064493,448.38604 288.006728,448.883379 L288,449 C288,449.512836 288.38604,449.935507 288.883379,449.993272 L289,450 L294.586,450 L292.292893,452.292893 C291.932409,452.653377 291.90468,453.220608 292.209705,453.612899 L292.292893,453.707107 C292.653377,454.067591 293.220608,454.09532 293.612899,453.790295 L293.707107,453.707107 L297.707107,449.707107 L297.803665,449.595307 L297.875329,449.484062 L297.928775,449.371336 L297.964155,449.265993 L297.988982,449.148467 L297.996034,449.08925 L297.99982,448.980824 L297.996034,448.91075 L297.97976,448.799274 L297.950262,448.687857 L297.906327,448.576778 L297.854005,448.479291 L297.787214,448.38325 C297.762331,448.351534 297.735573,448.32136 297.707107,448.292893 Z" id="ic_go"></path>
                </g>
            </g>
        </g>
    </g>
</svg>