<?xml version="1.0" encoding="UTF-8"?>
<svg width="14px" height="14px" viewBox="0 0 14 14" version="1.1" xmlns="http://www.w3.org/2000/svg" xmlns:xlink="http://www.w3.org/1999/xlink">
    <!-- Generator: sketchtool 59.1 (101010) - https://sketch.com -->
    <title>CCFD4895-164E-4FCC-8CE9-D89822DDA0F3</title>
    <desc>Created with sketchtool.</desc>
    <g id="Page-1" stroke="none" stroke-width="1" fill="none" fill-rule="evenodd">
        <g id="Ongoing-meeting-7---Sidebar-dropdowns" transform="translate(-170.000000, -207.000000)">
            <g id="Dropdown" transform="translate(150.000000, 111.000000)">
                <g id="Links" transform="translate(20.000000, 28.000000)">
                    <g id="Link-3" transform="translate(0.000000, 66.000000)">
                        <g id="Icon" transform="translate(0.000000, 2.000000)">
                            <rect id="icon-space" x="0" y="0" width="14" height="14"></rect>
                            <path d="M0.541730311,6.80002777 C0.561689042,6.75428901 0.598641143,6.67427462 0.652373581,6.56481965 C0.740327705,6.38565385 0.844592622,6.18685541 0.964992077,5.97324347 C1.30852703,5.36374598 1.71407653,4.75431366 2.18120317,4.1833811 C3.54532962,2.51611544 5.1526395,1.5 7,1.5 C8.8473605,1.5 10.4546704,2.51611544 11.8187968,4.1833811 C12.2859235,4.75431366 12.691473,5.36374598 13.0350079,5.97324347 C13.1554074,6.18685541 13.2596723,6.38565385 13.3476264,6.56481965 C13.4013589,6.67427462 13.438311,6.75428901 13.4582697,6.80002777 L13.5455303,7 L13.4582697,7.19997223 C13.438311,7.24571099 13.4013589,7.32572538 13.3476264,7.43518035 C13.2596723,7.61434615 13.1554074,7.81314459 13.0350079,8.02675653 C12.691473,8.63625402 12.2859235,9.24568634 11.8187968,9.8166189 C10.4546704,11.4838846 8.8473605,12.5 7,12.5 C5.1526395,12.5 3.54532962,11.4838846 2.18120317,9.8166189 C1.71407653,9.24568634 1.30852703,8.63625402 0.964992077,8.02675653 C0.844592622,7.81314459 0.740327705,7.61434615 0.652373581,7.43518035 C0.598641143,7.32572538 0.561689042,7.24571099 0.541730311,7.19997223 L0.454469702,7 L0.541730311,6.80002777 Z" id="icon" stroke="#616166" stroke-linecap="round" stroke-linejoin="round"></path>
                            <circle id="icon" stroke="#616166" stroke-width="2" stroke-linecap="round" stroke-linejoin="round" cx="7" cy="7" r="1"></circle>
                            <line x1="1" y1="13" x2="13" y2="1" id="icon" stroke="#CB2944" stroke-width="1.4" stroke-linecap="round"></line>
                        </g>
                    </g>
                </g>
            </g>
        </g>
    </g>
</svg>