<?xml version="1.0" encoding="UTF-8"?>
<svg width="50px" height="50px" viewBox="0 0 50 50" version="1.1" xmlns="http://www.w3.org/2000/svg" xmlns:xlink="http://www.w3.org/1999/xlink">
    <!-- Generator: sketchtool 59.1 (101010) - https://sketch.com -->
    <title>98DC284D-FE16-4C2D-9A03-3A1FFB17AD6C</title>
    <desc>Created with sketchtool.</desc>
    <g id="Page-1" stroke="none" stroke-width="1" fill="none" fill-rule="evenodd">
        <g id="Dashboard---2" transform="translate(-528.000000, -410.000000)" fill="#F15F22" fill-rule="nonzero">
            <g id="Content" transform="translate(260.000000, 98.000000)">
                <g id="Left">
                    <path d="M277.75,338.00023 L295.25,338.00023 C300.539841,338.00023 304.8491,342.178112 304.996122,347.391565 L305,347.666897 L305,361.00023 C305,361.552515 304.552285,362.00023 304,362.00023 C303.487164,362.00023 303.064493,361.61419 303.006728,361.116851 L303,361.00023 L303,347.666897 C303,343.516252 299.664427,340.132626 295.496135,340.004022 L295.25,340.00023 L277.75,340.00023 C273.550015,340.00023 270.133673,343.304036 270.003828,347.423645 L270,347.666897 L270,361.00023 C270,361.552515 269.552285,362.00023 269,362.00023 C268.487164,362.00023 268.064493,361.61419 268.006728,361.116851 L268,361.00023 L268,347.666897 C268,342.418075 272.218054,338.149696 277.47251,338.004071 L277.75,338.00023 L295.25,338.00023 L277.75,338.00023 Z M309.02874,338.762208 C309.160196,338.225796 309.70161,337.897514 310.238022,338.02897 C314.700966,339.122684 317.862514,342.902582 317.995633,347.290071 L318,347.570929 L318,361.00023 C318,361.552515 317.552285,362.00023 317,362.00023 C316.487164,362.00023 316.064493,361.61419 316.006728,361.116851 L316,361.00023 L316,347.571714 C315.997196,344.003117 313.440738,340.873027 309.761978,339.97149 C309.225566,339.840034 308.897284,339.29862 309.02874,338.762208 Z M286.5,312.00023 C291.746705,312.00023 296,316.253525 296,321.50023 C296,326.746935 291.746705,331.00023 286.5,331.00023 C281.253295,331.00023 277,326.746935 277,321.50023 C277,316.253525 281.253295,312.00023 286.5,312.00023 Z M301.027907,312.765634 C301.157471,312.228762 301.697724,311.898573 302.234596,312.028137 C306.794109,313.128489 310,317.021356 310,321.50023 C310,325.979104 306.794109,329.871972 302.234596,330.972323 C301.697724,331.101887 301.157471,330.771698 301.027907,330.234826 C300.898343,329.697954 301.228532,329.157701 301.765404,329.028137 C305.443956,328.140389 308,325.036621 308,321.50023 C308,317.963839 305.443956,314.860071 301.765404,313.972323 C301.228532,313.842759 300.898343,313.302506 301.027907,312.765634 Z M286.5,314.00023 C282.357864,314.00023 279,317.358095 279,321.50023 C279,325.642366 282.357864,329.00023 286.5,329.00023 C290.642136,329.00023 294,325.642366 294,321.50023 C294,317.358095 290.642136,314.00023 286.5,314.00023 Z" id="ic_instant-meeting"></path>
                </g>
            </g>
        </g>
    </g>
</svg>