<?xml version="1.0" encoding="UTF-8"?>
<svg width="14px" height="14px" viewBox="0 0 14 14" version="1.1" xmlns="http://www.w3.org/2000/svg" xmlns:xlink="http://www.w3.org/1999/xlink">
    <!-- Generator: sketchtool 59.1 (101010) - https://sketch.com -->
    <title>19AA2B16-0F9B-4F3B-BE6E-791B6EC635F7</title>
    <desc>Created with sketchtool.</desc>
    <g id="Page-1" stroke="none" stroke-width="1" fill="none" fill-rule="evenodd">
        <g id="Ongoing-meeting-7---Sidebar-dropdowns" transform="translate(-170.000000, -141.000000)">
            <g id="Dropdown" transform="translate(150.000000, 111.000000)">
                <g id="Links" transform="translate(20.000000, 28.000000)">
                    <g id="Link-1">
                        <g id="Icon" transform="translate(0.000000, 2.000000)">
                            <rect id="icon-space" x="0" y="0" width="14" height="14"></rect>
                            <path d="M7,2 C7.55228475,2 8,2.44771525 8,3 L8,6 L11,6 C11.5522847,6 12,6.44771525 12,7 C12,7.55228475 11.5522847,8 11,8 L8,8 L8,11 C8,11.5522847 7.55228475,12 7,12 C6.44771525,12 6,11.5522847 6,11 L6,7.999 L3,8 C2.44771525,8 2,7.55228475 2,7 C2,6.44771525 2.44771525,6 3,6 L6,5.999 L6,3 C6,2.44771525 6.44771525,2 7,2 Z" id="icon" fill="#616166"></path>
                        </g>
                    </g>
                </g>
            </g>
        </g>
    </g>
</svg>