<?xml version="1.0" encoding="UTF-8"?>
<svg width="18px" height="18px" viewBox="0 0 18 18" version="1.1" xmlns="http://www.w3.org/2000/svg" xmlns:xlink="http://www.w3.org/1999/xlink">
    <!-- Generator: sketchtool 59.1 (101010) - https://sketch.com -->
    <title>C7018843-6050-4786-8D62-F14045200A8A</title>
    <desc>Created with sketchtool.</desc>
    <g id="Page-1" stroke="none" stroke-width="1" fill="none" fill-rule="evenodd" stroke-linecap="round" stroke-linejoin="round">
        <g id="Ongoing-meeting-9---Additional-buttons" transform="translate(-1052.000000, -101.000000)" stroke="#FFFFFF" stroke-width="2">
            <g id="Buttons" transform="translate(200.000000, 80.000000)">
                <g id="Buttons-group" transform="translate(761.000000, 0.000000)">
                    <g id="Minimize" transform="translate(70.000000, 0.000000)">
                        <g id="ic_minimize" transform="translate(22.000000, 22.000000)">
                            <path d="M6,1 L3,1 C1.8954305,1 1,1.8954305 1,3 L1,6" id="Path" transform="translate(3.500000, 3.500000) scale(-1, -1) translate(-3.500000, -3.500000) "></path>
                            <path d="M15,6 L15,3 C15,1.8954305 14.1045695,1 13,1 L10,1" id="Path" transform="translate(12.500000, 3.500000) scale(-1, -1) translate(-12.500000, -3.500000) "></path>
                            <path d="M10,15 L13,15 C14.1045695,15 15,14.1045695 15,13 L15,10" id="Path" transform="translate(12.500000, 12.500000) scale(-1, -1) translate(-12.500000, -12.500000) "></path>
                            <path d="M1,10 L1,13 C1,14.1045695 1.8954305,15 3,15 L6,15" id="Path" transform="translate(3.500000, 12.500000) scale(-1, -1) translate(-3.500000, -12.500000) "></path>
                            <line x1="0" y1="0" x2="5" y2="5" id="Path-11"></line>
                            <line x1="11" y1="11" x2="16" y2="16" id="Path-11"></line>
                            <line x1="11" y1="0" x2="16" y2="5" id="Path-11" transform="translate(13.500000, 2.500000) scale(-1, 1) translate(-13.500000, -2.500000) "></line>
                            <line x1="0" y1="11" x2="5" y2="16" id="Path-11" transform="translate(2.500000, 13.500000) scale(-1, 1) translate(-2.500000, -13.500000) "></line>
                        </g>
                    </g>
                </g>
            </g>
        </g>
    </g>
</svg>