<?xml version="1.0" encoding="UTF-8"?>
<svg width="20px" height="20px" viewBox="0 0 20 20" version="1.1" xmlns="http://www.w3.org/2000/svg" xmlns:xlink="http://www.w3.org/1999/xlink">
    <!-- Generator: sketchtool 59.1 (101010) - https://sketch.com -->
    <title>793674EA-926B-43E8-A029-EBE137036A3D</title>
    <desc>Created with sketchtool.</desc>
    <g id="Page-1" stroke="none" stroke-width="1" fill="none" fill-rule="evenodd">
        <g id="Join-_-Skype-for-business" transform="translate(-1295.000000, -277.000000)" fill="#C8C9CC" fill-rule="nonzero">
            <g id="Content" transform="translate(145.000000, 169.000000)">
                <g id="Right" transform="translate(600.000000, 94.000000)">
                    <path d="M563.707107,26.2928932 L568,30.585 L568,28 C568,27.4477153 568.447715,27 569,27 C569.552285,27 570,27.4477153 570,28 L570,32 C570,33.1045695 569.104569,34 568,34 L564,34 C563.447715,34 563,33.5522847 563,33 C563,32.4477153 563.447715,32 564,32 L566.585,32 L562.292893,27.7071068 C561.902369,27.3165825 561.902369,26.6834175 562.292893,26.2928932 C562.683418,25.9023689 563.316582,25.9023689 563.707107,26.2928932 Z M552,30.585 L556.292893,26.2928932 C556.683418,25.9023689 557.316582,25.9023689 557.707107,26.2928932 C558.067591,26.6533772 558.09532,27.2206082 557.790295,27.6128994 L557.707107,27.7071068 L553.415,32 L556,32 C556.552285,32 557,32.4477153 557,33 C557,33.5128358 556.61396,33.9355072 556.116621,33.9932723 L556,34 L552,34 C550.945638,34 550.081835,33.1841222 550.005486,32.1492623 L550,32 L550,28 C550,27.4477153 550.447715,27 551,27 C551.512836,27 551.935507,27.3860402 551.993272,27.8833789 L552,28 L552,30.585 L556.292893,26.2928932 L552,30.585 Z M556,14 C556.552285,14 557,14.4477153 557,15 C557,15.5522847 556.552285,16 556,16 L553.415,16 L557.707107,20.2928932 C558.097631,20.6834175 558.097631,21.3165825 557.707107,21.7071068 C557.316582,22.0976311 556.683418,22.0976311 556.292893,21.7071068 L552,17.415 L552,20 C552,20.5522847 551.552285,21 551,21 C550.447715,21 550,20.5522847 550,20 L550,16 C550,14.8954305 550.895431,14 552,14 L556,14 Z M564,14 L568,14 C569.054362,14 569.918165,14.8158778 569.994514,15.8507377 L570,16 L570,20 C570,20.5522847 569.552285,21 569,21 C568.487164,21 568.064493,20.6139598 568.006728,20.1166211 L568,20 L568,17.415 L563.707107,21.7071068 C563.316582,22.0976311 562.683418,22.0976311 562.292893,21.7071068 C561.932409,21.3466228 561.90468,20.7793918 562.209705,20.3871006 L562.292893,20.2928932 L566.585,16 L564,16 C563.447715,16 563,15.5522847 563,15 C563,14.4871642 563.38604,14.0644928 563.883379,14.0067277 L564,14 L568,14 L564,14 Z" id="ic_maximize"></path>
                </g>
            </g>
        </g>
    </g>
</svg>