<?xml version="1.0" encoding="UTF-8"?>
<svg width="26px" height="26px" viewBox="0 0 26 26" version="1.1" xmlns="http://www.w3.org/2000/svg" xmlns:xlink="http://www.w3.org/1999/xlink">
    <!-- Generator: sketchtool 59.1 (101010) - https://sketch.com -->
    <title>A1902BDF-C209-4507-839A-EE494A64F843</title>
    <desc>Created with sketchtool.</desc>
	<g id="Page-2" stroke="none" stroke-width="1" fill="none" fill-rule="evenodd" stroke-linecap="round" stroke-linejoin="round">
        <g id="Ongoing-meeting-2" transform="translate(-583.000000, -838.000000)" stroke="#303133" stroke-width="2">
            <g id="Screen" transform="translate(330.000000, 0.000000)">
                <g id="Bottom-buttons" transform="translate(0.000000, 800.000000)">
                    <g id="Centered" transform="translate(236.000000, 20.000000)">
                        <g id="Button-/-Mic">
                            <g id="ic_meeting_mic-off" transform="translate(30.000000, 30.000000) scale(-1, 1) translate(-30.000000, -30.000000) translate(23.000000, 18.000000)">
                                <path d="M7,1 h0 q3,0 3,3 v7 q0,3 -3,3 h0 q-3,0 -3,-3 v-7 q0,-3 3,-3 z"/>
                                <path d="M14,10 L14,12 C14,15.8659932 10.8659932,19 7,19 C3.13400675,19 0,15.8659932 0,12 L0,10" id="Rectangle"></path>
                                <line x1="7" y1="19" x2="7" y2="23" id="Path"></line>
                                <line x1="3" y1="23" x2="11" y2="23" id="Path"></line>
                            </g>
                        </g>
                    </g>
                </g>
            </g>
        </g>
    </g>
	<g id="Page-1" stroke="none" stroke-width="1" fill="none" fill-rule="evenodd">
        <g id="Ongoing-meeting-1" transform="translate(-583.000000, -837.000000)">
            <g id="Screen" transform="translate(330.000000, 0.000000)">
                <g id="Bottom-buttons" transform="translate(0.000000, 800.000000)">
                    <g id="Centered" transform="translate(236.000000, 20.000000)">
                        <g id="Button-/-Mic">
                            <g id="ic_crossed_line" transform="translate(17.000000, 17.000000)">
                                <path d="M8.50874926e-13,24.7928932 L8.50874926e-13,20.6666667 L20.6666667,-5.86197757e-14 L24.7928932,-5.86197757e-14 C25.0690356,-5.86197757e-14 25.2928932,0.223857625 25.2928932,0.5 C25.2928932,0.632608245 25.2402148,0.759785201 25.1464466,0.853553391 L0.853553391,25.1464466 C0.658291245,25.3417088 0.341708755,25.3417088 0.146446609,25.1464466 C0.0526784202,25.0526784 8.50874926e-13,24.9255015 8.50874926e-13,24.7928932 Z" id="whitespace" fill="#FFFFFF"></path>
                                <line x1="25" y1="1" x2="1" y2="25" id="red-line" stroke="#CC2944" stroke-width="2" stroke-linecap="round" stroke-linejoin="round"></line>
                            </g>
                        </g>
                    </g>
                </g>
            </g>
        </g>
    </g>
</svg>