<?xml version="1.0" encoding="UTF-8"?>
<svg width="14px" height="14px" viewBox="0 0 14 14" version="1.1" xmlns="http://www.w3.org/2000/svg" xmlns:xlink="http://www.w3.org/1999/xlink">
    <!-- Generator: sketchtool 59.1 (101010) - https://sketch.com -->
    <title>0700268D-DA53-469B-898E-6BD80C337864</title>
    <desc>Created with sketchtool.</desc>
    <g id="Page-1" stroke="none" stroke-width="1" fill="none" fill-rule="evenodd">
        <g id="Ongoing-meeting-7---Sidebar-dropdowns" transform="translate(-170.000000, -174.000000)">
            <g id="Dropdown" transform="translate(150.000000, 111.000000)">
                <g id="Links" transform="translate(20.000000, 28.000000)">
                    <g id="Link-2" transform="translate(0.000000, 33.000000)">
                        <g id="Icon" transform="translate(0.000000, 2.000000)">
                            <rect id="icon-space" x="0" y="0" width="14" height="14"></rect>
                            <path d="M5.5,14 C5.22385763,14 5,13.7761424 5,13.5 C5,13.2238576 5.22385763,13 5.5,13 L6,13 L5.99981203,11.8999437 C3.78622628,11.4505206 2.10371468,9.53872185 2.00461951,7.21688962 L2,7 C2,6.72385763 2.22385763,6.5 2.5,6.5 C2.77614237,6.5 3,6.72385763 3,7 C3,9.209139 4.790861,11 7,11 C9.209139,11 11,9.209139 11,7 C11,6.72385763 11.2238576,6.5 11.5,6.5 C11.7761424,6.5 12,6.72385763 12,7 C12,9.41853874 10.2828356,11.4360122 8.0011864,11.8997409 L8,13 L8.5,13 C8.77614237,13 9,13.2238576 9,13.5 C9,13.7761424 8.77614237,14 8.5,14 L5.5,14 Z M7,0 C8.65685425,0 10,1.34314575 10,3 L10,7 C10,8.65685425 8.65685425,10 7,10 C5.34314575,10 4,8.65685425 4,7 L4,3 C4,1.34314575 5.34314575,0 7,0 Z M7,1 C5.8954305,1 5,1.8954305 5,3 L5,7 C5,8.1045695 5.8954305,9 7,9 C8.1045695,9 9,8.1045695 9,7 L9,3 C9,1.8954305 8.1045695,1 7,1 Z" id="icon" fill="#616166" fill-rule="nonzero"></path>
                            <line x1="1" y1="13" x2="13" y2="1" id="icon" stroke="#CB2944" stroke-width="1.4" stroke-linecap="round"></line>
                        </g>
                    </g>
                </g>
            </g>
        </g>
    </g>
</svg>