<?xml version="1.0" encoding="UTF-8"?>
<svg width="16px" height="24px" viewBox="0 0 16 24" version="1.1" xmlns="http://www.w3.org/2000/svg" xmlns:xlink="http://www.w3.org/1999/xlink">
    <!-- Generator: sketchtool 59.1 (101010) - https://sketch.com -->
    <title>F33EDDBA-D2F0-4EB4-850E-FEA6F514F659</title>
    <desc>Created with sketchtool.</desc>
    <g id="Page-1" stroke="none" stroke-width="1" fill="none" fill-rule="evenodd" stroke-linecap="round" stroke-linejoin="round">
        <g id="Ongoing-meeting-9---Additional-buttons" transform="translate(-602.000000, -98.000000)" stroke="#303133" stroke-width="2">
            <g id="Buttons" transform="translate(200.000000, 80.000000)">
                <g id="Buttons-group" transform="translate(380.000000, 0.000000)">
                    <g id="Disabled">
                        <g id="ic_meeting_mic-off" transform="translate(30.000000, 30.000000) scale(-1, 1) translate(-30.000000, -30.000000) translate(23.000000, 18.000000)">
							<path d="M7,1 h0 q3,0 3,3 v7 q0,3 -3,3 h0 q-3,0 -3,-3 v-7 q0,-3 3,-3 z"/>
                            <path d="M14,10 L14,12 C14,15.8659932 10.8659932,19 7,19 C3.13400675,19 0,15.8659932 0,12 L0,10" id="Rectangle"></path>
                            <line x1="7" y1="19" x2="7" y2="23" id="Path"></line>
                            <line x1="3" y1="23" x2="11" y2="23" id="Path"></line>
                        </g>
                    </g>
                </g>
            </g>
        </g>
    </g>
</svg>