<?xml version="1.0" encoding="UTF-8"?>
<svg width="46px" height="50px" viewBox="0 0 46 50" version="1.1" xmlns="http://www.w3.org/2000/svg" xmlns:xlink="http://www.w3.org/1999/xlink">
    <!-- Generator: sketchtool 59.1 (101010) - https://sketch.com -->
    <title>97BD9FB9-F5A1-479E-9E04-3F82569BB514</title>
    <desc>Created with sketchtool.</desc>
    <g id="Page-1" stroke="none" stroke-width="1" fill="none" fill-rule="evenodd">
        <g id="Dashboard---2" transform="translate(-1115.000000, -410.000000)" fill="#F15F22" fill-rule="nonzero">
            <g id="Content" transform="translate(260.000000, 98.000000)">
                <g id="Right" transform="translate(585.000000, 0.000000)">
                    <path d="M302.883379,312.006728 L303,312 C303.512836,312 303.935507,312.38604 303.993272,312.883379 L304,313 L304,317 L313,317 C314.656854,317 316,318.343146 316,320 L316,359 C316,360.656854 314.656854,362 313,362 L273,362 C271.343146,362 270,360.656854 270,359 L270,320 C270,318.343146 271.343146,317 273,317 L282,317 L282,313 C282,312.487164 282.38604,312.064493 282.883379,312.006728 L283,312 C283.512836,312 283.935507,312.38604 283.993272,312.883379 L284,313 L284,317 L302,317 L302,313 C302,312.487164 302.38604,312.064493 302.883379,312.006728 L303,312 L302.883379,312.006728 Z M314,328 L272,328 L272,359 C272,359.552285 272.447715,360 273,360 L313,360 C313.552285,360 314,359.552285 314,359 L314,328 Z M279,351 C280.104569,351 281,351.895431 281,353 L281,355 C281,356.104569 280.104569,357 279,357 L277,357 C275.895431,357 275,356.104569 275,355 L275,353 C275,351.895431 275.895431,351 277,351 L279,351 Z M289,351 C290.104569,351 291,351.895431 291,353 L291,355 C291,356.104569 290.104569,357 289,357 L287,357 C285.895431,357 285,356.104569 285,355 L285,353 C285,351.895431 285.895431,351 287,351 L289,351 Z M299,351 C300.104569,351 301,351.895431 301,353 L301,355 C301,356.104569 300.104569,357 299,357 L297,357 C295.895431,357 295,356.104569 295,355 L295,353 C295,351.895431 295.895431,351 297,351 L299,351 Z M279,353 L277,353 L277,355 L279,355 L279,353 Z M289,353 L287,353 L287,355 L289,355 L289,353 Z M299,353 L297,353 L297,355 L299,355 L299,353 Z M279,341 C280.104569,341 281,341.895431 281,343 L281,345 C281,346.104569 280.104569,347 279,347 L277,347 C275.895431,347 275,346.104569 275,345 L275,343 C275,341.895431 275.895431,341 277,341 L279,341 Z M289,341 C290.104569,341 291,341.895431 291,343 L291,345 C291,346.104569 290.104569,347 289,347 L287,347 C285.895431,347 285,346.104569 285,345 L285,343 C285,341.895431 285.895431,341 287,341 L289,341 Z M299,341 C300.104569,341 301,341.895431 301,343 L301,345 C301,346.104569 300.104569,347 299,347 L297,347 C295.895431,347 295,346.104569 295,345 L295,343 C295,341.895431 295.895431,341 297,341 L299,341 Z M309,341 C310.104569,341 311,341.895431 311,343 L311,345 C311,346.104569 310.104569,347 309,347 L307,347 C305.895431,347 305,346.104569 305,345 L305,343 C305,341.895431 305.895431,341 307,341 L309,341 Z M279,343 L277,343 L277,345 L279,345 L279,343 Z M289,343 L287,343 L287,345 L289,345 L289,343 Z M299,343 L297,343 L297,345 L299,345 L299,343 Z M309,343 L307,343 L307,345 L309,345 L309,343 Z M279,331 C280.104569,331 281,331.895431 281,333 L281,335 C281,336.104569 280.104569,337 279,337 L277,337 C275.895431,337 275,336.104569 275,335 L275,333 C275,331.895431 275.895431,331 277,331 L279,331 Z M289,331 C290.104569,331 291,331.895431 291,333 L291,335 C291,336.104569 290.104569,337 289,337 L287,337 C285.895431,337 285,336.104569 285,335 L285,333 C285,331.895431 285.895431,331 287,331 L289,331 Z M299,331 C300.104569,331 301,331.895431 301,333 L301,335 C301,336.104569 300.104569,337 299,337 L297,337 C295.895431,337 295,336.104569 295,335 L295,333 C295,331.895431 295.895431,331 297,331 L299,331 Z M309,331 C310.104569,331 311,331.895431 311,333 L311,335 C311,336.104569 310.104569,337 309,337 L307,337 C305.895431,337 305,336.104569 305,335 L305,333 C305,331.895431 305.895431,331 307,331 L309,331 Z M279,333 L277,333 L277,335 L279,335 L279,333 Z M289,333 L287,333 L287,335 L289,335 L289,333 Z M299,333 L297,333 L297,335 L299,335 L299,333 Z M309,333 L307,333 L307,335 L309,335 L309,333 Z M282,319 L273,319 C272.447715,319 272,319.447715 272,320 L272,326 L314,326 L314,320 C314,319.447715 313.552285,319 313,319 L304,319 L304,321 C304,321.512836 303.61396,321.935507 303.116621,321.993272 L303,322 C302.487164,322 302.064493,321.61396 302.006728,321.116621 L302,321 L302,319 L284,319 L284,321 C284,321.512836 283.61396,321.935507 283.116621,321.993272 L283,322 C282.487164,322 282.064493,321.61396 282.006728,321.116621 L282,321 L282,319 Z" id="ic_organise-meeting"></path>
                </g>
            </g>
        </g>
    </g>
</svg>