<svg xmlns="http://www.w3.org/2000/svg" xmlns:xlink="http://www.w3.org/1999/xlink" height="49.999998881830834" width="37">
  <g opacity="1">
    <g opacity="1">
      <path fill="rgb(241,95,34)" fill-opacity="1" opacity="1" fill-rule="evenodd" d="M18.5 0C23.7467041015625 0 28 4.253294944763184 28 9.5C28 14.746705055236816 23.7467041015625 19 18.5 19C13.253294944763184 19 9 14.746705055236816 9 9.5C9 4.253294944763184 13.253294944763184 0 18.5 0ZM11 9.5C11 5.357865333557129 14.357864379882812 2 18.5 2C22.642135620117188 2 26 5.357865333557129 26 9.5C26 13.642135620117188 22.642135620117188 17 18.5 17C14.357864379882812 17 11 13.642135620117188 11 9.5ZM27.25 26C32.53984069824219 26 36.849098205566406 30.177881240844727 36.99612045288086 35.391334533691406L37 35.66666793823242L37 49C37 49.552284240722656 36.552284240722656 50 36 50C35.48716354370117 50 35.064491271972656 49.61396026611328 35.00672912597656 49.11662292480469L35 49L35 35.66666793823242C35 31.516021728515625 31.664426803588867 28.132396697998047 27.496135711669922 28.00379180908203L27.25 28L9.75 28C5.550014972686768 28 2.1336729526519775 31.30380630493164 2.0038280487060547 35.42341613769531L2 35.66666793823242L2 49C2 49.552284240722656 1.5522849559783936 50 1 50C0.4871639907360077 50 0.06449300050735474 49.61396026611328 0.00672800000756979 49.11662292480469L0 49L0 35.66666793823242C0 30.417844772338867 4.218053817749023 26.149465560913086 9.47251033782959 26.003841400146484L9.75 26L27.25 26Z"/>
    </g>
  </g>
</svg>