<?xml version="1.0" encoding="UTF-8"?>
<svg width="76px" height="80px" viewBox="0 0 76 80" version="1.1" xmlns="http://www.w3.org/2000/svg" xmlns:xlink="http://www.w3.org/1999/xlink">
    <!-- Generator: sketchtool 59.1 (101010) - https://sketch.com -->
    <title>92A9BEB7-D211-42C3-BEB3-16D5FE548FB6</title>
    <desc>Created with sketchtool.</desc>
    <defs>
        <linearGradient x1="0%" y1="8.38262065%" x2="100%" y2="91.6173794%" id="linearGradient-1">
            <stop stop-color="#F9B547" offset="0%"></stop>
            <stop stop-color="#F15F22" offset="100%"></stop>
        </linearGradient>
        <linearGradient x1="45.2500154%" y1="47.2843431%" x2="54.9371644%" y2="61.9196589%" id="linearGradient-2">
            <stop stop-color="#FFFFFF" stop-opacity="0" offset="0%"></stop>
            <stop stop-color="#FFFFFF" offset="100%"></stop>
        </linearGradient>
        <linearGradient x1="42.3911869%" y1="38.5069691%" x2="78.8516314%" y2="62.4759564%" id="linearGradient-3">
            <stop stop-color="#FFFFFF" stop-opacity="0" offset="0%"></stop>
            <stop stop-color="#FFFFFF" offset="100%"></stop>
        </linearGradient>
        <linearGradient x1="34.0747724%" y1="29.240086%" x2="54.8010401%" y2="56.2610235%" id="linearGradient-4">
            <stop stop-color="#FFFFFF" stop-opacity="0" offset="0%"></stop>
            <stop stop-color="#FFFFFF" offset="100%"></stop>
        </linearGradient>
        <linearGradient x1="50.0764414%" y1="21.1754208%" x2="52.1317972%" y2="167.695225%" id="linearGradient-5">
            <stop stop-color="#FFFFFF" stop-opacity="0" offset="0%"></stop>
            <stop stop-color="#FFFFFF" offset="100%"></stop>
        </linearGradient>
        <linearGradient x1="33.7626109%" y1="13.8266889%" x2="86.3858771%" y2="84.1132072%" id="linearGradient-6">
            <stop stop-color="#FFFFFF" stop-opacity="0" offset="0%"></stop>
            <stop stop-color="#FFFFFF" offset="100%"></stop>
        </linearGradient>
        <linearGradient x1="57.7404883%" y1="44.3149724%" x2="88.2357163%" y2="21.4113263%" id="linearGradient-7">
            <stop stop-color="#FFFFFF" stop-opacity="0" offset="0%"></stop>
            <stop stop-color="#FFFFFF" offset="100%"></stop>
        </linearGradient>
        <linearGradient x1="42.5007158%" y1="34.7218363%" x2="15.5514009%" y2="97.3012677%" id="linearGradient-8">
            <stop stop-color="#FFFFFF" stop-opacity="0" offset="0%"></stop>
            <stop stop-color="#FFFFFF" offset="100%"></stop>
        </linearGradient>
        <linearGradient x1="100%" y1="82.6715757%" x2="50%" y2="43.3323456%" id="linearGradient-9">
            <stop stop-color="#C24D00" stop-opacity="0" offset="0%"></stop>
            <stop stop-color="#C24D00" offset="100%"></stop>
        </linearGradient>
        <linearGradient x1="0%" y1="22.3395226%" x2="100%" y2="77.6604774%" id="linearGradient-10">
            <stop stop-color="#727274" offset="0%"></stop>
            <stop stop-color="#3E3E40" offset="100%"></stop>
        </linearGradient>
        <linearGradient x1="46.0018857%" y1="48.0485079%" x2="54.5835282%" y2="58.6184126%" id="linearGradient-11">
            <stop stop-color="#FFFFFF" stop-opacity="0" offset="0%"></stop>
            <stop stop-color="#FFFFFF" offset="100%"></stop>
        </linearGradient>
        <linearGradient x1="41.2236277%" y1="36.8782132%" x2="94.4548103%" y2="65.4079074%" id="linearGradient-12">
            <stop stop-color="#FFFFFF" stop-opacity="0" offset="0%"></stop>
            <stop stop-color="#FFFFFF" offset="100%"></stop>
        </linearGradient>
        <linearGradient x1="31.7024443%" y1="30.5548013%" x2="51.9951972%" y2="52.1230224%" id="linearGradient-13">
            <stop stop-color="#FFFFFF" stop-opacity="0" offset="0%"></stop>
            <stop stop-color="#FFFFFF" offset="100%"></stop>
        </linearGradient>
        <linearGradient x1="50.0634232%" y1="30.8969491%" x2="51.7344404%" y2="127.999559%" id="linearGradient-14">
            <stop stop-color="#FFFFFF" stop-opacity="0" offset="0%"></stop>
            <stop stop-color="#FFFFFF" offset="100%"></stop>
        </linearGradient>
        <linearGradient x1="28.0422839%" y1="10.4035958%" x2="98.8762533%" y2="87.5348359%" id="linearGradient-15">
            <stop stop-color="#FFFFFF" stop-opacity="0" offset="0%"></stop>
            <stop stop-color="#FFFFFF" offset="100%"></stop>
        </linearGradient>
        <linearGradient x1="60.7591631%" y1="43.5057052%" x2="105.737021%" y2="15.9653261%" id="linearGradient-16">
            <stop stop-color="#FFFFFF" stop-opacity="0" offset="0%"></stop>
            <stop stop-color="#FFFFFF" offset="100%"></stop>
        </linearGradient>
        <linearGradient x1="40.4931191%" y1="35.1717136%" x2="5.65732238%" y2="101.120173%" id="linearGradient-17">
            <stop stop-color="#FFFFFF" stop-opacity="0" offset="0%"></stop>
            <stop stop-color="#FFFFFF" offset="100%"></stop>
        </linearGradient>
        <linearGradient x1="1.1544353%" y1="0%" x2="98.8455647%" y2="100%" id="linearGradient-18">
            <stop stop-color="#F9B547" offset="0%"></stop>
            <stop stop-color="#F15F22" offset="100%"></stop>
        </linearGradient>
        <linearGradient x1="1.15427454%" y1="0%" x2="98.8457255%" y2="100%" id="linearGradient-19">
            <stop stop-color="#F9B547" offset="0%"></stop>
            <stop stop-color="#F15F22" offset="100%"></stop>
        </linearGradient>
        <linearGradient x1="1.15382431%" y1="0%" x2="98.8461757%" y2="100%" id="linearGradient-20">
            <stop stop-color="#F9B547" offset="0%"></stop>
            <stop stop-color="#F15F22" offset="100%"></stop>
        </linearGradient>
        <linearGradient x1="1.15679833%" y1="0%" x2="98.8432017%" y2="100%" id="linearGradient-21">
            <stop stop-color="#F9B547" offset="0%"></stop>
            <stop stop-color="#F15F22" offset="100%"></stop>
        </linearGradient>
    </defs>
    <g id="Page-1" stroke="none" stroke-width="1" fill="none" fill-rule="evenodd">
        <g id="Dashboard-_-CTA-popup-_-Premium-account" transform="translate(-692.000000, -50.000000)">
            <g id="Popup" transform="translate(480.000000, 0.000000)">
                <g id="Icon" transform="translate(212.000000, 50.000000)">
                    <g id="ic_premium">
                        <path d="M75.019578,31.3767843 L64.250141,14.7780392 C63.7252793,13.969098 62.8892842,13.4152157 61.9416563,13.2486275 L56.2490096,12.2481569 C44.0666518,10.1069804 31.6059937,10.1069804 19.4237922,12.2481569 L13.7311455,13.2486275 C12.7835176,13.4152157 11.9475225,13.969098 11.4226608,14.7780392 L0.653067438,31.3767843 C-0.165103954,32.6379608 -0.0828646737,34.2837647 0.857102154,35.4563137 L35.1333709,78.214902 C36.5219014,79.9469804 39.1509004,79.9469804 40.5392746,78.214902 L74.8155433,35.4563137 C75.7555101,34.2839216 75.8377494,32.6379608 75.019578,31.3767843 Z" id="Path" fill="url(#linearGradient-1)"></path>
                        <path d="M75.019578,31.3769412 L64.2499847,14.7778824 C63.725123,13.969098 62.8892842,13.4152157 61.9418127,13.2486275 L56.2490096,12.2481569 C44.0666518,10.1069804 31.6059937,10.1069804 19.4237922,12.2481569 L13.7309891,13.2486275 C12.7835176,13.4152157 11.9475225,13.969098 11.4228171,14.7778824 L0.65291109,31.3769412 C0.236086146,32.019451 0.054252909,32.7620392 0.09928126,33.4908235 L75.5732078,33.4908235 C75.6183925,32.7618824 75.4365593,32.019451 75.019578,31.3769412 Z" id="Path" fill="url(#linearGradient-2)" fill-rule="nonzero"></path>
                        <path d="M63.4027325,13.8820392 C62.9744941,13.5643922 62.4773061,13.342902 61.9418127,13.2487843 L56.2490096,12.2483137 C44.0666518,10.1071373 31.6059937,10.1071373 19.4237922,12.2483137 L13.7309891,13.2487843 C13.1954957,13.342902 12.6983077,13.5643922 12.2700693,13.8820392 L13.5666669,33.4909804 L36.6918521,79.3190588 C37.4313803,79.5769412 38.2411088,79.5769412 38.980637,79.3190588 L62.1059785,33.4908235 L63.4027325,13.8820392 Z" id="Path" fill="url(#linearGradient-3)" fill-rule="nonzero"></path>
                        <path d="M62.1083238,33.4900392 L38.9828258,79.3171765 C39.5722595,79.1140392 40.1144759,78.7465098 40.5416198,78.2142745 L74.8175758,35.4563137 C75.3510367,34.790902 75.6065101,33.9728627 75.5791491,33.1592157 C75.5827451,33.2694902 75.5811348,33.3797647 75.5743023,33.4900392 L62.1083238,33.4900392 Z" id="Path" fill="url(#linearGradient-4)" fill-rule="nonzero"></path>
                        <path d="M37.8363227,10.6418824 C33.958725,10.6418824 13.5657288,33.4900392 13.5657288,33.4900392 L12.2696003,13.8828235 C12.6973696,13.5636078 13.194714,13.3435294 13.7303637,13.2481569 L19.4231668,12.2484706 C25.5145021,11.1774118 31.6754124,10.6418824 37.8363227,10.6418824 Z" id="Path" fill="url(#linearGradient-5)" fill-rule="nonzero"></path>
                        <path d="M13.5657288,33.4900392 L36.6912267,79.3171765 C36.1017931,79.1140392 35.5594204,78.7465098 35.1324328,78.2142745 L0.85647676,35.4563137 C0.323015879,34.790902 0.0675425265,33.9728627 0.0949035037,33.1592157 C0.0913074896,33.2694902 0.0929178093,33.3797647 0.0997503054,33.4900392 L13.5657288,33.4900392 Z" id="Path" fill="url(#linearGradient-6)" fill-rule="nonzero"></path>
                        <path d="M13.5665106,33.4908235 L36.6918521,79.3190588 C37.4313803,79.5769412 38.2411088,79.5769412 38.980637,79.3190588 L62.1059785,33.4908235 C62.1059785,33.4908235 41.7142331,10.6421961 37.8361664,10.6421961 C33.958256,10.6421961 13.5665106,33.4908235 13.5665106,33.4908235 Z" id="Path" fill="url(#linearGradient-7)" fill-rule="nonzero"></path>
                        <path d="M40.5392746,78.2150588 L74.8155433,35.4564706 C75.7555101,34.2839216 75.8379058,32.6379608 75.019578,31.3767843 L64.250141,14.7780392 C63.7252793,13.969098 62.8891279,13.4152157 61.9416563,13.2486275 L56.2490096,12.2481569 C50.1578307,11.1775686 43.9970767,10.6421961 37.8363227,10.6421961 L37.8363227,79.5140392 C38.8407051,79.5140392 39.8450875,79.081098 40.5392746,78.2150588 L40.5392746,78.2150588 Z" id="Path" fill="url(#linearGradient-8)" fill-rule="nonzero"></path>
                        <path d="M38.6785718,49.2661961 L38.6362014,49.2128627 C38.3300711,48.8282353 37.842264,48.5647059 37.2895722,48.4854902 L33.9687313,48.0095686 C26.8622257,46.9912157 19.5934303,46.9912157 12.4869246,48.0095686 L11.0815085,48.2109804 L35.1333709,78.214902 C36.5219014,79.9469804 39.1509004,79.9469804 40.5392746,78.214902 L51,65 L38.6785718,49.2661961 Z" id="Path" fill="url(#linearGradient-9)" fill-rule="nonzero" opacity="0.5"></path>
                        <path d="M44.9185944,57.1069804 L38.6362014,49.2130196 C38.3300711,48.8283922 37.842264,48.5648627 37.2895722,48.4856471 L33.9687313,48.0098824 C26.8622257,46.9915294 19.5934303,46.9915294 12.4869246,48.0098824 L9.1660837,48.4856471 C8.61339196,48.5648627 8.12558483,48.8282353 7.81945458,49.2130196 L1.53706152,57.1069804 C1.05972973,57.7068235 1.1077287,58.4895686 1.65619904,59.0472157 L21.6511321,79.3821176 C22.4611734,80.2058039 23.9946389,80.2058039 24.8046802,79.3821176 L44.7996132,59.0470588 C45.3479272,58.4894118 45.3959262,57.7066667 44.9185944,57.1069804 L44.9185944,57.1069804 Z" id="Path" fill="url(#linearGradient-10)"></path>
                        <path d="M44.9185944,57.1069804 L38.6362014,49.2128627 C38.3300711,48.8282353 37.8424203,48.5648627 37.2897286,48.4856471 L33.9688877,48.0097255 C26.862382,46.9913725 19.5935866,46.9913725 12.4870809,48.0097255 L9.16624005,48.4856471 C8.61354831,48.5648627 8.12589752,48.8282353 7.81976728,49.2128627 L1.53737422,57.1069804 C1.29409605,57.412549 1.1880918,57.7656471 1.21451469,58.1123137 L45.241923,58.1123137 C45.2678768,57.7656471 45.1618726,57.412549 44.9185944,57.1069804 Z" id="Path" fill="url(#linearGradient-11)" fill-rule="nonzero"></path>
                        <path d="M38.1419839,48.7868235 C37.8921391,48.6357647 37.6021128,48.5305098 37.2898849,48.4856471 L33.969044,48.0097255 C26.8625383,46.9913725 19.593743,46.9913725 12.4872373,48.0097255 L9.1663964,48.4856471 C8.85401221,48.5303529 8.56398586,48.6357647 8.31414105,48.7868235 L9.07055481,58.1124706 L22.560611,79.907451 C22.9919763,80.0301176 23.4644613,80.0301176 23.8958267,79.907451 L37.3858829,58.1124706 L38.1419839,48.7868235 Z" id="Path" fill="url(#linearGradient-12)" fill-rule="nonzero"></path>
                        <path d="M37.386821,58.1118431 L23.8966084,79.9063529 C24.2404186,79.8097255 24.5568679,79.6349804 24.805931,79.3818039 L44.8007077,59.0470588 C45.1118411,58.7305098 45.2609975,58.3416471 45.24505,57.9546667 C45.2470825,58.0070588 45.2462056,58.0596078 45.2422357,58.112 L37.386821,58.112 L37.386821,58.1118431 Z" id="Path" fill="url(#linearGradient-13)" fill-rule="nonzero"></path>
                        <path d="M23.2279061,47.2458039 C20.9660132,47.2458039 9.06977306,58.1118431 9.06977306,58.1118431 L8.313672,48.7871373 C8.56320411,48.6352941 8.85323047,48.5306667 9.16577101,48.4853333 L12.4866119,48.0098824 C16.0400993,47.500549 19.6339245,47.2458039 23.2279061,47.2458039 L23.2279061,47.2458039 Z" id="Path" fill="url(#linearGradient-14)" fill-rule="nonzero"></path>
                        <path d="M9.06977306,58.1118431 L22.5598293,79.9063529 C22.216019,79.8097255 21.8995698,79.6349804 21.6505067,79.3818039 L1.65588634,59.0470588 C1.34475294,58.7305098 1.19559653,58.3416471 1.21154407,57.9546667 C1.20935519,58.0070588 1.21038843,58.0596078 1.21435834,58.112 L9.06977306,58.112 L9.06977306,58.1118431 Z" id="Path" fill="url(#linearGradient-15)" fill-rule="nonzero"></path>
                        <path d="M9.07024211,58.1123137 L22.5602983,79.9072941 C22.9916636,80.0299608 23.4641486,80.0299608 23.895514,79.9072941 L37.3855702,58.1123137 C37.3855702,58.1123137 25.4901117,47.2459608 23.2279061,47.2459608 C20.9657005,47.2459608 9.07024211,58.1123137 9.07024211,58.1123137 Z" id="Path" fill="url(#linearGradient-16)" fill-rule="nonzero"></path>
                        <path d="M24.8046802,79.3821176 L44.7996132,59.0470588 C45.3479272,58.4894118 45.3959262,57.7066667 44.9185944,57.1068235 L38.6362014,49.2128627 C38.3300711,48.8282353 37.842264,48.5647059 37.2895722,48.4854902 L33.9687313,48.0097255 C30.4154003,47.500549 26.8215751,47.2459608 23.2277498,47.2459608 L23.2277498,80 C23.8137437,80 24.3997377,79.7940392 24.8046802,79.3821176 L24.8046802,79.3821176 Z" id="Path" fill="url(#linearGradient-17)" fill-rule="nonzero"></path>
                        <path d="M22.6623037,30.3766611 C21.317123,31.2460089 20.1694379,32.3909521 19.3002017,33.7304767 C19.1047245,34.0316722 18.6536395,34.0308294 18.4593309,33.7290018 C17.5950879,32.3864221 16.4516524,31.2372649 15.1096587,30.3631763 C14.8117684,30.1691217 14.8126183,29.7279162 15.111146,29.5350204 C16.4563268,28.6656727 17.6040118,27.5207294 18.4731418,26.1813102 C18.668619,25.8801147 19.119704,25.8808522 19.3140126,26.1827851 C20.1782557,27.5253648 21.3217974,28.6745221 22.6637911,29.5486106 C22.9616813,29.7425598 22.9609377,30.18366 22.6623037,30.3766611 L22.6623037,30.3766611 Z" id="Path" fill="#FFFFFF"></path>
                        <path d="M75.4265437,23.0726275 C73.4468598,24.3670588 71.7578276,26.0718431 70.4785846,28.0663529 C70.1909035,28.5148235 69.527048,28.5135686 69.2410867,28.0641569 C67.9691922,26.065098 66.2864139,24.3540392 64.3114204,23.052549 C63.8730194,22.7636078 63.8742701,22.1066667 64.3136093,21.819451 C66.2932932,20.5251765 67.9823254,18.8202353 69.261412,16.8258824 C69.5490932,16.3774118 70.2129486,16.3785098 70.4989099,16.8280784 C71.7708045,18.8271373 73.4537391,20.5381961 75.4287326,21.8396863 C75.8671337,22.1284706 75.8658829,22.7852549 75.4265437,23.0726275 L75.4265437,23.0726275 Z" id="Path" fill="url(#linearGradient-18)"></path>
                        <path d="M69.7048255,66.7626667 C67.7251415,68.0569412 66.0361093,69.7618824 64.7568663,71.7563922 C64.4691852,72.2048627 63.8053297,72.2036078 63.5193684,71.7541961 C62.2474739,69.7551373 60.5646956,68.0440784 58.5897021,66.7425882 C58.1513011,66.4536471 58.1525518,65.7967059 58.591891,65.5094902 C60.5715749,64.2150588 62.2606071,62.5102745 63.5396937,60.5159216 C63.8273749,60.067451 64.4912303,60.068549 64.7771916,60.5181176 C66.0490862,62.5171765 67.7320208,64.2282353 69.7070143,65.5297255 C70.1454154,65.8185098 70.1441646,66.475451 69.7048255,66.7626667 Z" id="Path" fill="url(#linearGradient-18)"></path>
                        <path d="M8.09224447,17.6549616 C6.69230053,18.5702557 5.49779844,19.7759028 4.59316636,21.1862557 C4.38975704,21.5034322 3.92024267,21.502491 3.71808413,21.1846871 C2.81861155,19.77104 1.62864357,18.5610008 0.231982945,17.6406871 C-0.078056014,17.4364518 -0.0771179234,16.9718243 0.233546429,16.7686871 C1.63349037,15.853393 2.82799246,14.6477459 3.73246819,13.237393 C3.93587751,12.9202165 4.40539188,12.9210008 4.60755041,13.2389616 C5.507023,14.6526087 6.69714733,15.862491 8.09380795,16.7829616 C8.40384691,16.9871969 8.40290882,17.4518243 8.09224447,17.6549616 L8.09224447,17.6549616 Z" id="Path" fill="url(#linearGradient-19)"></path>
                        <path d="M22.0922445,4.65505882 C20.6923005,5.57035294 19.4977984,6.776 18.5931664,8.18635294 C18.389757,8.50352941 17.9202427,8.50258824 17.7180841,8.18478431 C16.8186116,6.77113725 15.6286436,5.56109804 14.2319829,4.64078431 C13.921944,4.43654902 13.9228821,3.97192157 14.2335464,3.76878431 C15.6334904,2.8534902 16.8279925,1.64784314 17.7324682,0.237490196 C17.9358775,-0.0796862745 18.4053919,-0.078745098 18.6075504,0.239058824 C19.507023,1.65270588 20.6971473,2.8627451 22.0936516,3.78305882 C22.4038469,3.98729412 22.4029088,4.45192157 22.0922445,4.65505882 L22.0922445,4.65505882 Z" id="Path" fill="url(#linearGradient-20)"></path>
                        <path d="M59.5549974,11.3424314 C58.1550534,12.2577255 56.9605513,13.4633725 56.0560756,14.8737255 C55.8526663,15.190902 55.3831519,15.1899608 55.1809934,14.8721569 C54.2815208,13.4585098 53.0915528,12.2484706 51.6948922,11.3281569 C51.3848532,11.1239216 51.3857913,10.6592941 51.6964557,10.4561569 C53.0963996,9.54086275 54.2909017,8.33521569 55.1953774,6.92486275 C55.3987868,6.60768627 55.8683011,6.60847059 56.0704597,6.92643137 C56.9699322,8.34007843 58.1600566,9.55011765 59.5565608,10.4704314 C59.8664435,10.6748235 59.8656617,11.1392941 59.5549974,11.3424314 L59.5549974,11.3424314 Z" id="Path" fill="url(#linearGradient-21)"></path>
                    </g>
                </g>
            </g>
        </g>
    </g>
</svg>