<?xml version="1.0" encoding="UTF-8"?>
<svg width="22px" height="22px" viewBox="0 0 22 22" version="1.1" xmlns="http://www.w3.org/2000/svg" xmlns:xlink="http://www.w3.org/1999/xlink">
    <!-- Generator: sketchtool 59.1 (101010) - https://sketch.com -->
    <title>33840405-13C2-4DBD-8C09-161A497D9054</title>
    <desc>Created with sketchtool.</desc>
    <g id="Page-1" stroke="none" stroke-width="1" fill="none" fill-rule="evenodd">
        <g id="Ongoing-meeting-1" transform="translate(-1399.000000, -839.000000)" fill="#FFFFFF">
            <g id="Screen" transform="translate(330.000000, 0.000000)">
                <g id="Bottom-buttons" transform="translate(0.000000, 800.000000)">
                    <g id="Button-/-Raise-hand" transform="translate(1050.000000, 20.000000)">
                        <path d="M40.5,40 C40.7761424,40 41,40.2238576 41,40.5 C41,40.7761424 40.7761424,41 40.5,41 L28.5,41 C28.2238576,41 28,40.7761424 28,40.5 C28,40.2238576 28.2238576,40 28.5,40 L40.5,40 Z M22.9251719,33.3398114 L24.8083906,35.0097171 C25.0638698,35.236258 25.0638698,35.6035534 24.8083906,35.8300943 C24.6857052,35.9388831 24.5193081,36 24.3458047,36 L23,36 L23,40 C23,40.5522847 22.5522847,41 22,41 C21.4477153,41 21,40.5522847 21,40 L21,36 L19.6541953,36 C19.2928932,36 19,35.7402829 19,35.4199057 C19,35.2660551 19.068924,35.1185059 19.1916094,35.0097171 L21.0748281,33.3398114 C21.5857864,32.8867295 22.4142136,32.8867295 22.9251719,33.3398114 Z M34,19 C34.5522847,19 35,19.4477153 35,20 L35,26.5 C35,26.7761424 35.2238576,27 35.5,27 C35.7454599,27 35.9496084,26.8231248 35.9919443,26.5898756 L36,26.5 L36,22 C36,21.4477153 36.4477153,21 37,21 C37.5522847,21 38,21.4477153 38,22 L38,27.5 C38,27.7761424 38.2238576,28 38.5,28 C38.7454599,28 38.9496084,27.8231248 38.9919443,27.5898756 L39,27.5 L39,24 C39,23.4477153 39.4477153,23 40,23 C40.5522847,23 41,23.4477153 41,24 L41,28.3772234 C41,29.4520444 40.8267212,30.5198364 40.486833,31.5395011 L39.513167,34.4604989 C39.1732788,35.4801636 39,36.5479556 39,37.6227766 L39,39 L30,39 L30,38.1213203 C30,36.8479529 29.525772,35.6234797 28.6751203,34.6840215 L28.5,34.5 C27.5395661,33.5395661 27,32.2369383 27,30.8786797 L27,28 C27,27.4477153 27.4477153,27 28,27 C28.5522847,27 29,27.4477153 29,28 L29.1113251,28.4453003 C29.3700271,29.4801085 29.7110982,30.4925624 30.1312745,31.4729738 L30.25,31.75 C30.2886799,31.840253 30.3932006,31.8820613 30.4834536,31.8433814 C30.5620387,31.8097021 30.6055238,31.7248573 30.5869767,31.6413952 L30.4762588,31.1431646 C30.1597037,29.7186666 30,28.2638023 30,26.8045554 L30,22 C30,21.4477153 30.4477153,21 31,21 C31.5522847,21 32,21.4477153 32,22 L32,26.5 C32,26.7761424 32.2238576,27 32.5,27 C32.7454599,27 32.9496084,26.8231248 32.9919443,26.5898756 L33,26.5 L33,20 C33,19.4477153 33.4477153,19 34,19 Z" id="ic_raise_hand"></path>
                    </g>
                </g>
            </g>
        </g>
    </g>
</svg>