<?xml version="1.0" encoding="UTF-8"?>
<svg width="12px" height="16px" viewBox="0 0 12 16" version="1.1" xmlns="http://www.w3.org/2000/svg" xmlns:xlink="http://www.w3.org/1999/xlink">
    <!-- Generator: sketchtool 59.1 (101010) - https://sketch.com -->
    <title>06C7C51A-F1E2-4303-9B10-FED72E2C11BA</title>
    <desc>Created with sketchtool.</desc>
    <g id="Page-1" stroke="none" stroke-width="1" fill="none" fill-rule="evenodd">
        <g id="Ongoing-meeting-1" transform="translate(-20.000000, -202.000000)">
            <g id="Sidebar">
                <g id="Participants" transform="translate(0.000000, 69.000000)">
                    <g id="Rows" transform="translate(0.000000, 50.000000)">
                        <g id="Row-3" transform="translate(20.000000, 80.000000)">
                            <g id="ic_raised_hand_c" transform="translate(0.000000, 3.000000)">
                                <path d="M4.32994097,1.31421937 C4.50646383,0.558513334 5.19036336,0 6,0 C6.86023893,0 7.57853245,0.630509193 7.69711807,1.45813689 C7.83939738,1.42020786 7.98885258,1.4 8.14285714,1.4 C9.00309608,1.4 9.7213896,2.03050919 9.83997522,2.85813689 C9.98225452,2.82020786 10.1317097,2.8 10.2857143,2.8 C11.2280168,2.8 12,3.55654354 12,4.5 L12,7.56405638 C12,8.42602081 11.8582158,9.2822602 11.5801856,10.0996689 L10.8847099,12.1443674 C10.6771855,12.7544893 10.5714286,13.3931587 10.5714286,14.0359436 L10.5714286,16 L2.14285714,16 L2.14285714,14.3849242 C2.14285714,13.7474268 1.90050009,13.1320012 1.47909972,12.6754613 L1.20116394,12.3881972 C0.430418253,11.5482673 0,10.4539999 0,9.31507576 L0,7.3 C0,6.35654354 0.771983206,5.6 1.71428571,5.6 C1.86210859,5.6 2.00573999,5.61861815 2.14285714,5.65365534 L2.14285714,3.1 C2.14285714,2.15654354 2.91484035,1.4 3.85714286,1.4 C3.95981257,1.4 4.06046034,1.40898127 4.15830793,1.42620702 L4.30288193,1.45813689 L4.32994097,1.31421937 Z" id="Path" fill="#B3A496" fill-rule="nonzero"></path>
                                <path d="M6,1 C6.39448911,1 6.71428571,1.31340068 6.71428571,1.7 L6.71428571,6.25 C6.71428571,6.44329966 6.87418402,6.6 7.07142857,6.6 C7.24675706,6.6 7.39257741,6.47618739 7.42281738,6.31291294 L7.42857143,6.25 L7.42857143,3.1 C7.42857143,2.71340068 7.74836804,2.4 8.14285714,2.4 C8.53734625,2.4 8.85714286,2.71340068 8.85714286,3.1 L8.85714286,6.95 C8.85714286,7.14329966 9.01704116,7.3 9.21428571,7.3 C9.38961421,7.3 9.53543455,7.17618739 9.56567452,7.01291294 L9.57142857,6.95 L9.57142857,4.5 C9.57142857,4.11340068 9.89122518,3.8 10.2857143,3.8 C10.6802034,3.8 11,4.11340068 11,4.5 L11,7.56405638 C11,8.31643105 10.8762294,9.06388546 10.6334521,9.77765074 L9.93797644,11.8223493 C9.69519914,12.5361145 9.57142857,13.283569 9.57142857,14.0359436 L9.57142857,15 L3.14285714,15 L3.14285714,14.3849242 C3.14285714,13.493567 2.80412283,12.6364358 2.19651452,11.978815 L2.07142857,11.85 C1.38540438,11.1776963 1,10.2658568 1,9.31507576 L1,7.3 C1,6.91340068 1.31979661,6.6 1.71428571,6.6 C2.10877482,6.6 2.42857143,6.91340068 2.42857143,7.3 L2.50808934,7.61171023 C2.69287651,8.33607592 2.9364987,9.04479368 3.23662463,9.73108166 L3.32142857,9.925 C3.34905704,9.9881771 3.42371471,10.0174429 3.48818114,9.99036701 C3.54431337,9.96679147 3.57537418,9.90740011 3.56212622,9.84897665 L3.483042,9.50021521 C3.25693121,8.50306664 3.14285714,7.48466164 3.14285714,6.4631888 L3.14285714,3.1 C3.14285714,2.71340068 3.46265375,2.4 3.85714286,2.4 C4.25163196,2.4 4.57142857,2.71340068 4.57142857,3.1 L4.57142857,6.25 C4.57142857,6.44329966 4.73132688,6.6 4.92857143,6.6 C5.10389992,6.6 5.24972026,6.47618739 5.27996024,6.31291294 L5.28571429,6.25 L5.28571429,1.7 C5.28571429,1.31340068 5.60551089,1 6,1 Z" id="Path" fill="#E6D3C1"></path>
                            </g>
                        </g>
                    </g>
                </g>
            </g>
        </g>
    </g>
</svg>