<?xml version="1.0" encoding="UTF-8"?>
<svg width="26px" height="26px" viewBox="0 0 26 26" version="1.1" xmlns="http://www.w3.org/2000/svg" xmlns:xlink="http://www.w3.org/1999/xlink">
    <!-- Generator: sketchtool 59.1 (101010) - https://sketch.com -->
    <title>883C7EC1-AD8B-44F0-B7FA-4828D32A12FE</title>
    <desc>Created with sketchtool.</desc>
    <g id="Page-1" stroke="none" stroke-width="1" fill="none" fill-rule="evenodd" stroke-linecap="round" stroke-linejoin="round">
        <g id="Ongoing-meeting-1" transform="translate(-653.000000, -837.000000)" stroke="#3E3E40" stroke-width="2">
            <g id="Screen" transform="translate(330.000000, 0.000000)">
                <g id="Bottom-buttons" transform="translate(0.000000, 800.000000)">
                    <g id="Centered" transform="translate(236.000000, 20.000000)">
                        <g id="Button-/-Start-screen-share" transform="translate(70.000000, 0.000000)">
                            <g id="ic_monitor" transform="translate(20.000000, 21.000000)">
                                <path d="M2,0 h16 q2,0 2,2 v10 q0,2 -2,2 h-16 q-2,0 -2,-2 v-10 q0,-2 2,-2 z"/>
                                <line x1="6" y1="18" x2="14" y2="18" id="Path"></line>
                                <line x1="10" y1="14" x2="10" y2="18" id="Path"></line>
                            </g>
                        </g>
                    </g>
                </g>
            </g>
        </g>
    </g>
	<g id="Page-2" stroke="none" stroke-width="1" fill="none" fill-rule="evenodd">
        <g id="Ongoing-meeting-2" transform="translate(-653.000000, -837.000000)">
            <g id="Screen" transform="translate(330.000000, 0.000000)">
                <g id="Bottom-buttons" transform="translate(0.000000, 800.000000)">
                    <g id="Centered" transform="translate(236.000000, 20.000000)">
                        <g id="Button-/-Start-screen-share" transform="translate(70.000000, 0.000000)">
                            <g id="ic_crossed_line" transform="translate(17.000000, 17.000000)">
                                <path d="M8.50874926e-13,24.7928932 L8.50874926e-13,20.6666667 L20.6666667,-5.86197757e-14 L24.7928932,-5.86197757e-14 C25.0690356,-5.86197757e-14 25.2928932,0.223857625 25.2928932,0.5 C25.2928932,0.632608245 25.2402148,0.759785201 25.1464466,0.853553391 L0.853553391,25.1464466 C0.658291245,25.3417088 0.341708755,25.3417088 0.146446609,25.1464466 C0.0526784202,25.0526784 8.50874926e-13,24.9255015 8.50874926e-13,24.7928932 Z" id="whitespace" fill="#FFFFFF"></path>
                                <line x1="25" y1="1" x2="1" y2="25" id="red-line" stroke="#CC2944" stroke-width="2" stroke-linecap="round" stroke-linejoin="round"></line>
                            </g>
                        </g>
                    </g>
                </g>
            </g>
        </g>
    </g>
</svg>