<?xml version="1.0" encoding="UTF-8"?>
<svg width="16px" height="16px" viewBox="0 0 16 16" version="1.1" xmlns="http://www.w3.org/2000/svg" xmlns:xlink="http://www.w3.org/1999/xlink">
    <!-- Generator: sketchtool 59.1 (101010) - https://sketch.com -->
    <title>0E2D63E4-7053-423A-8BD4-CC13ABF903A3</title>
    <desc>Created with sketchtool.</desc>
    <g id="Page-1" stroke="none" stroke-width="1" fill="none" fill-rule="evenodd">
        <g id="Ongoing-meeting-1" transform="translate(-20.000000, -468.000000)" fill="#F15F22" fill-rule="nonzero">
            <g id="Sidebar">
                <g id="Chatbox" transform="translate(0.000000, 450.000000)">
                    <g id="Block-title">
                        <g id="Icon" transform="translate(20.000000, 18.000000)">
                            <path d="M7.99292504,13.9948804 C5.26903301,13.9925405 2.88789157,12.1570798 2.19222398,9.52351256 C1.49655638,6.88994535 2.66063155,4.11799614 5.02802867,2.77076429 C7.3954258,1.42353244 10.3730976,1.83850764 12.2819381,3.78168578 C14.1907785,5.72486393 14.5526115,8.70946721 13.1633998,11.0524808 C13.0232892,11.2897015 12.9870535,11.5741526 13.0632162,11.838924 L13.5641341,13.5420494 L11.8459856,13.0511486 C11.5809069,12.9746962 11.2960331,13.0109398 11.0585427,13.1513324 C10.1315947,13.7041926 9.07222328,13.9956936 7.99292504,13.9948804 L7.99292504,13.9948804 L7.99292504,13.9948804 Z M14.7232581,15.9564801 C15.0730057,16.0562733 15.449366,15.9586766 15.7065449,15.7014971 C15.9637238,15.4443175 16.0613202,15.0679562 15.9615272,14.7182078 C15.8617343,14.3684593 15.0949392,11.6916538 15.0959411,11.6826372 C16.9138965,8.18067447 15.9061994,3.87616454 12.7227075,1.54505992 C9.53921563,-0.786044706 5.13135262,-0.447066203 2.34172278,2.34339023 C-0.447907068,5.13384667 -0.785590331,9.54182058 1.54644289,12.7246362 C3.87847611,15.9074518 8.18327047,16.9138875 11.6846901,15.094899 C11.6937066,15.0969027 14.7272655,15.9574819 14.7272655,15.9574819 L14.7232581,15.9564801 L14.7232581,15.9564801 Z" id="ic_speech_bubble"></path>
                        </g>
                    </g>
                </g>
            </g>
        </g>
    </g>
</svg>