<?xml version="1.0" encoding="UTF-8"?>
<svg width="20px" height="20px" viewBox="0 0 20 20" version="1.1" xmlns="http://www.w3.org/2000/svg" xmlns:xlink="http://www.w3.org/1999/xlink">
    <!-- Generator: sketchtool 59.1 (101010) - https://sketch.com -->
    <title>9D720CAF-5F2F-4D62-99E3-AE83362E901C</title>
    <desc>Created with sketchtool.</desc>
    <g id="Page-1" stroke="none" stroke-width="1" fill="none" fill-rule="evenodd">
        <g id="Join-_-Numeric-only-device" transform="translate(-1337.000000, -24.000000)" fill="#C8C9CC" fill-rule="nonzero">
            <g id="Top" transform="translate(0.000000, 19.000000)">
                <g id="Link" transform="translate(1337.000000, 4.000000)">
                    <path d="M20,18 C20,19.6568541 18.6568542,21 17,21 L16,21 C14.3431458,21 13,19.6568541 13,18 L13,15 C13,13.3431456 14.3431458,12 16,12 L18,11.999 L18,11 C18,6.6650857 14.5521622,3.13545713 10.2491793,3.00380682 L10,3 C5.66508574,3 2.13545713,6.44783774 2.00380682,10.7508207 L2,11 L2,11.999 L4,12 C5.65685425,12 7,13.3431456 7,15 L7,18 C7,19.6568541 5.65685425,21 4,21 L3,21 C1.34314575,21 0,19.6568541 0,18 L0,11 C0,5.47715246 4.47715251,1 10,1 C15.4292399,1 19.8479317,5.32667075 19.9961582,10.7200952 L20,11 L20,18 Z M18,13.9999999 L16,13.9999999 C15.4477153,13.9999999 15,14.4477151 15,14.9999999 L15,17.9999999 C15,18.5522846 15.4477153,18.9999999 16,18.9999999 L17,18.9999999 C17.5522847,18.9999999 18,18.5522846 18,17.9999999 L18,13.9999999 Z M4,13.9999999 L2,13.9999999 L2,17.9999999 C2,18.5522846 2.44771525,18.9999999 3,18.9999999 L4,18.9999999 C4.55228475,18.9999999 5,18.5522846 5,17.9999999 L5,14.9999999 C5,14.4477151 4.55228475,13.9999999 4,13.9999999 Z" id="ic_support"></path>
                </g>
            </g>
        </g>
    </g>
</svg>