<?xml version="1.0" encoding="UTF-8"?>
<svg width="20px" height="20px" viewBox="0 0 20 20" version="1.1" xmlns="http://www.w3.org/2000/svg" xmlns:xlink="http://www.w3.org/1999/xlink">
    <!-- Generator: sketchtool 63.1 (101010) - https://sketch.com -->
    <title>8790EA91-BE19-4A5B-A934-231BA55A6E88</title>
    <desc>Created with sketchtool.</desc>
    <g id="Page-1" stroke="none" stroke-width="1" fill="none" fill-rule="evenodd">
        <g id="Guest-welcome" transform="translate(-293.000000, -443.000000)" fill="#FFFFFF" fill-rule="nonzero">
            <g id="Content" transform="translate(135.000000, 168.000000)">
                <g id="CTA">
                    <g id="Buttons" transform="translate(0.000000, 258.000000)">
                        <g id="Button-/-Orange">
                            <path d="M178,34 C178,35.6568541 176.656854,37 175,37 L174,37 C172.343146,37 171,35.6568541 171,34 L171,31 C171,29.3431456 172.343146,28 174,28 L176,27.999 L176,27 C176,22.6650857 172.552162,19.1354571 168.249179,19.0038068 L168,19 C163.665086,19 160.135457,22.4478377 160.003807,26.7508207 L160,27 L160,27.999 L162,28 C163.656854,28 165,29.3431456 165,31 L165,34 C165,35.6568541 163.656854,37 162,37 L161,37 C159.343146,37 158,35.6568541 158,34 L158,27 C158,21.4771525 162.477153,17 168,17 C173.42924,17 177.847932,21.3266708 177.996158,26.7200952 L178,27 L178,34 Z M176,29.9999999 L174,29.9999999 C173.447715,29.9999999 173,30.4477151 173,30.9999999 L173,33.9999999 C173,34.5522846 173.447715,34.9999999 174,34.9999999 L175,34.9999999 C175.552285,34.9999999 176,34.5522846 176,33.9999999 L176,29.9999999 Z M162,29.9999999 L160,29.9999999 L160,33.9999999 C160,34.5522846 160.447715,34.9999999 161,34.9999999 L162,34.9999999 C162.552285,34.9999999 163,34.5522846 163,33.9999999 L163,30.9999999 C163,30.4477151 162.552285,29.9999999 162,29.9999999 Z" id="ic_support"></path>
                        </g>
                    </g>
                </g>
            </g>
        </g>
    </g>
</svg>