<?xml version="1.0" encoding="UTF-8"?>
<svg width="16px" height="16px" viewBox="0 0 16 16" version="1.1" xmlns="http://www.w3.org/2000/svg" xmlns:xlink="http://www.w3.org/1999/xlink">
    <!-- Generator: sketchtool 59.1 (101010) - https://sketch.com -->
    <title>E58619D8-754C-4821-B552-8DE95BEE6533</title>
    <desc>Created with sketchtool.</desc>
    <g id="Page-1" stroke="none" stroke-width="1" fill="none" fill-rule="evenodd">
        <g id="Ongoing-meeting-1" transform="translate(-294.000000, -86.000000)" fill="#919499" fill-rule="nonzero">
            <g id="Sidebar">
                <g id="Participants" transform="translate(0.000000, 69.000000)">
                    <g id="Block-title">
                        <path d="M302,17 C302.803323,17 303.454545,17.6512222 303.454545,18.4545455 L303.454545,18.52 C303.456453,18.9982858 303.742203,19.4297685 304.181818,19.6181818 C304.630611,19.816252 305.154773,19.7212115 305.505455,19.3781818 L305.549091,19.3345455 C305.821917,19.0614152 306.192132,18.9079467 306.578182,18.9079467 C306.964232,18.9079467 307.334446,19.0614152 307.607273,19.3345455 C307.880403,19.607372 308.033872,19.9775865 308.033872,20.3636364 C308.033872,20.7496862 307.880403,21.1199007 307.607273,21.3927273 L307.563636,21.4363636 C307.220607,21.7870449 307.125566,22.3112072 307.323636,22.76 L307.323636,22.8181818 C307.51205,23.2577968 307.943532,23.543547 308.421818,23.5454545 L308.545455,23.5454545 C309.348778,23.5454545 310,24.1966767 310,25 C310,25.8033233 309.348778,26.4545455 308.545455,26.4545455 L308.48,26.4545455 C308.001714,26.456453 307.570231,26.7422032 307.381818,27.1818182 C307.183748,27.630611 307.278788,28.1547733 307.621818,28.5054545 L307.665455,28.5490909 C307.938585,28.8219175 308.092053,29.192132 308.092053,29.5781818 C308.092053,29.9642316 307.938585,30.3344462 307.665455,30.6072727 C307.392628,30.880403 307.022413,31.0338715 306.636364,31.0338715 C306.250314,31.0338715 305.880099,30.880403 305.607273,30.6072727 L305.563636,30.5636364 C305.212955,30.2206066 304.688793,30.1255662 304.24,30.3236364 C303.800385,30.5120497 303.514635,30.9435324 303.512727,31.4218182 L303.512727,31.5454545 C303.512727,32.3487778 302.861505,33 302.058182,33 C301.254859,33 300.603636,32.3487778 300.603636,31.5454545 L300.603636,31.48 C300.592114,30.987397 300.280634,30.5519019 299.818182,30.3818182 C299.369389,30.183748 298.845227,30.2787885 298.494545,30.6218182 L298.450909,30.6654545 C298.178083,30.9385848 297.807868,31.0920533 297.421818,31.0920533 C297.035768,31.0920533 296.665554,30.9385848 296.392727,30.6654545 C296.119597,30.392628 295.966128,30.0224135 295.966128,29.6363636 C295.966128,29.2503138 296.119597,28.8800993 296.392727,28.6072727 L296.436364,28.5636364 C296.779393,28.2129551 296.874434,27.6887928 296.676364,27.24 C296.48795,26.800385 296.056468,26.5146348 295.578182,26.5127273 L295.454545,26.5127273 C294.651222,26.5127273 294,25.8615051 294,25.0581818 C294,24.2548585 294.651222,23.6036364 295.454545,23.6036364 L295.52,23.6036364 C296.012603,23.5921139 296.448098,23.280634 296.618182,22.8181818 C296.816252,22.369389 296.721212,21.8452267 296.378182,21.4945455 L296.334545,21.4509091 C296.061415,21.1780825 295.907947,20.807868 295.907947,20.4218182 C295.907947,20.0357684 296.061415,19.6655538 296.334545,19.3927273 C296.607372,19.119597 296.977587,18.9661285 297.363636,18.9661285 C297.749686,18.9661285 298.119901,19.119597 298.392727,19.3927273 L298.436364,19.4363636 C298.787045,19.7793934 299.311207,19.8744338 299.76,19.6763636 L299.818182,19.6763636 C300.257797,19.4879503 300.543547,19.0564676 300.545455,18.5781818 L300.545455,18.4545455 C300.545455,17.6512222 301.196677,17 302,17 Z M302,21 C299.790861,21 298,22.790861 298,25 C298,27.209139 299.790861,29 302,29 C304.209139,29 306,27.209139 306,25 C306,22.790861 304.209139,21 302,21 Z M302,23 C303.104569,23 304,23.8954305 304,25 C304,26.1045695 303.104569,27 302,27 C300.895431,27 300,26.1045695 300,25 C300,23.8954305 300.895431,23 302,23 Z" id="ic_sidebar_settings"></path>
                    </g>
                </g>
            </g>
        </g>
    </g>
</svg>