<?xml version="1.0" encoding="UTF-8"?>
<svg width="16px" height="16px" viewBox="0 0 16 16" version="1.1" xmlns="http://www.w3.org/2000/svg" xmlns:xlink="http://www.w3.org/1999/xlink">
    <!-- Generator: sketchtool 59.1 (101010) - https://sketch.com -->
    <title>188F1FDF-7C0A-4D47-96E7-8F9DAFB58CD0</title>
    <desc>Created with sketchtool.</desc>
    <g id="Page-1" stroke="none" stroke-width="1" fill="none" fill-rule="evenodd">
        <g id="Ongoing-meeting-1" transform="translate(-20.000000, -86.000000)" fill="#F15F22" fill-rule="nonzero">
            <g id="Sidebar">
                <g id="Participants" transform="translate(0.000000, 69.000000)">
                    <g id="Block-title">
                        <g id="Icon" transform="translate(20.000000, 17.000000)">
                            <path d="M4.463,8.31 C4.451,8.322 4.44,8.336 4.428,8.349 C2.979,8.999 2,10.511 2,12.178 L2,13 C2,13.552 1.552,14 1,14 C0.447,14 0,13.552 0,13 L0,12.251 C0,9.947 1.248,7.853 3.125,6.772 C2.431,6.053 2,5.079 2,4 C2,1.791 3.791,0 6,0 C6.64,0 7.237,0.164 7.775,0.433 C6.878,0.792 6.088,1.362 5.466,2.081 C4.623,2.317 4,3.083 4,4 C4,4.255 4.052,4.497 4.14,4.722 C4.05,5.135 4,5.561 4,6 C4,6.803 4.159,7.586 4.463,8.31 M10,4 C11.103,4 12,4.897 12,6 C12,7.102 11.103,8 10,8 C8.897,8 8,7.102 8,6 C8,4.897 8.897,4 10,4 M12.893,8.749 C13.575,8.032 14,7.067 14,6 C14,3.791 12.209,2 10,2 C7.791,2 6,3.791 6,6 C6,7.079 6.431,8.053 7.125,8.772 C5.248,9.853 4,11.947 4,14.251 L4,15 C4,15.552 4.447,16 5,16 C5.552,16 6,15.552 6,15 L6,14.178 C6,12.09 7.522,10.222 9.6,10.019 C11.984,9.787 14,11.663 14,14 L14,15 C14,15.552 14.447,16 15,16 C15.552,16 16,15.552 16,15 L16,14 C16,11.737 14.744,9.771 12.893,8.749" id="ic_users"></path>
                        </g>
                    </g>
                </g>
            </g>
        </g>
    </g>
</svg>