<?xml version="1.0" encoding="UTF-8"?>
<svg width="20px" height="14px" viewBox="0 0 20 14" version="1.1" xmlns="http://www.w3.org/2000/svg" xmlns:xlink="http://www.w3.org/1999/xlink">
    <!-- Generator: sketchtool 63.1 (101010) - https://sketch.com -->
    <title>2322B2C5-3367-46FF-8EC2-6466286CF569</title>
    <desc>Created with sketchtool.</desc>
    <g id="Page-1" stroke="none" stroke-width="1" fill="none" fill-rule="evenodd">
        <g id="Guest-welcome" transform="translate(-293.000000, -514.000000)" fill="#FFFFFF" fill-rule="nonzero">
            <g id="Content" transform="translate(135.000000, 168.000000)">
                <g id="CTA">
                    <g id="Buttons" transform="translate(0.000000, 258.000000)">
                        <g id="Button-/-Dark" transform="translate(0.000000, 68.000000)">
                            <path d="M170,20 C171.656854,20 173,21.3431458 173,23 L173,24.584 L176.292893,21.2928932 C176.922858,20.6629284 178,21.1090951 178,22 L178,32 C178,32.8909049 176.922858,33.3370716 176.292893,32.7071068 L173,29.415 L173,31 C173,32.6568542 171.656854,34 170,34 L161,34 C159.343146,34 158,32.6568542 158,31 L158,23 C158,21.3431458 159.343146,20 161,20 L170,20 Z M170,22 L161,22 C160.447715,22 160,22.4477153 160,23 L160,31 C160,31.5522847 160.447715,32 161,32 L170,32 C170.552285,32 171,31.5522847 171,31 L171,23 C171,22.4477153 170.552285,22 170,22 Z M176,24.4142136 L173.414214,27 L176,29.5857864 L176,24.4142136 Z" id="ic_video"></path>
                        </g>
                    </g>
                </g>
            </g>
        </g>
    </g>
</svg>