<?xml version="1.0" encoding="UTF-8"?>
<svg width="14px" height="14px" viewBox="0 0 14 14" version="1.1" xmlns="http://www.w3.org/2000/svg" xmlns:xlink="http://www.w3.org/1999/xlink">
    <!-- Generator: Sketch 61.2 (89653) - https://sketch.com -->
    <title>ic_small_plus</title>
    <desc>Created with Sketch.</desc>
    <g id="Page-1" stroke="none" stroke-width="1" fill="none" fill-rule="evenodd">
        <g id="Dashboard" transform="translate(-1081.000000, -487.000000)" fill="#F15F22">
            <g id="Card" transform="translate(860.000000, 257.000000)">
                <g id="Group-3" transform="translate(25.000000, 108.000000)">
                    <g id="Button" transform="translate(176.000000, 107.000000)">
                        <g id="Centered" transform="translate(20.000000, 11.000000)">
                            <path d="M7,4 C7.55228475,4 8,4.44771525 8,5 L8,10 L13,10 C13.5522847,10 14,10.4477153 14,11 C14,11.5522847 13.5522847,12 13,12 L8,12 L8,17 C8,17.5522847 7.55228475,18 7,18 C6.44771525,18 6,17.5522847 6,17 L6,12 L1,12 C0.44771525,12 0,11.5522847 0,11 C0,10.4477153 0.44771525,10 1,10 L6,9.999 L6,5 C6,4.44771525 6.44771525,4 7,4 Z" id="ic_small_plus"></path>
                        </g>
                    </g>
                </g>
            </g>
        </g>
    </g>
</svg>