<?xml version="1.0" encoding="UTF-8"?>
<svg width="14px" height="16px" viewBox="0 0 14 16" version="1.1" xmlns="http://www.w3.org/2000/svg" xmlns:xlink="http://www.w3.org/1999/xlink">
    <!-- Generator: Sketch 61.2 (89653) - https://sketch.com -->
    <title>icon</title>
    <desc>Created with Sketch.</desc>
    <g id="Page-1" stroke="none" stroke-width="1" fill="none" fill-rule="evenodd">
        <g id="Dashboard" transform="translate(-1212.000000, -26.000000)" fill="#58585A" fill-rule="nonzero">
            <g id="Top-bar">
                <g id="Profile" transform="translate(1197.000000, 12.000000)">
                    <g id="Icon" transform="translate(10.000000, 10.000000)">
                        <path d="M8.75,13 L15.25,13 C17.2477086,13 18.8908511,14.5308609 18.9947815,16.4712991 L19,16.6666667 L19,19 C19,19.5522847 18.5522847,20 18,20 C17.4871642,20 17.0644928,19.6139598 17.0067277,19.1166211 L17,19 L17,16.6666667 C17,15.8012728 16.302877,15.0797277 15.4019559,15.0061728 L15.25,15 L8.75,15 C7.82795735,15 7.08230576,15.6759981 7.00637025,16.5238527 L7,16.6666667 L7,19 C7,19.5522847 6.55228475,20 6,20 C5.48716416,20 5.06449284,19.6139598 5.00672773,19.1166211 L5,19 L5,16.6666667 C5,14.7001692 6.57870032,13.1058729 8.5514549,13.0050613 L8.75,13 L15.25,13 L8.75,13 Z M12,4 C14.209139,4 16,5.790861 16,8 C16,10.209139 14.209139,12 12,12 C9.790861,12 8,10.209139 8,8 C8,5.790861 9.790861,4 12,4 Z M12,6 C10.8954305,6 10,6.8954305 10,8 C10,9.1045695 10.8954305,10 12,10 C13.1045695,10 14,9.1045695 14,8 C14,6.8954305 13.1045695,6 12,6 Z" id="icon"></path>
                    </g>
                </g>
            </g>
        </g>
    </g>
</svg>