<?xml version="1.0" encoding="UTF-8"?>
<svg width="32px" height="30px" viewBox="0 0 32 30" version="1.1" xmlns="http://www.w3.org/2000/svg" xmlns:xlink="http://www.w3.org/1999/xlink">
    <!-- Generator: Sketch 59.1 (86144) - https://sketch.com -->
    <title>ic_outlook</title>
    <desc>Created with Sketch.</desc>
    <g id="Page-1" stroke="none" stroke-width="1" fill="none" fill-rule="evenodd">
        <g id="Dashboard-_-Personal-_-Meetings" transform="translate(-1195.000000, -783.000000)" fill-rule="nonzero">
            <g id="Content" transform="translate(260.000000, 108.000000)">
                <g id="CTA" transform="translate(0.000000, 637.000000)">
                    <g id="Block-2" transform="translate(935.000000, 31.000000)">
                        <g id="ic_outlook" transform="translate(0.000000, 7.000000)">
                            <path d="M31,6.03802905 L17,6.03802905 C16.448,6.03802905 16,6.48417012 16,7.03387967 C16,7.58358921 16.448,8.02973029 17,8.02973029 L28.086,8.02973029 L21.942,12.7879046 L17.536,9.99753112 L16.464,11.678527 L21.464,14.845332 C21.626,14.9489004 21.814,15.0006846 22,15.0006846 C22.216,15.0006846 22.434,14.9309751 22.614,14.791556 L30,9.06939834 L30,21.971639 L17,21.971639 C16.448,21.971639 16,22.4177801 16,22.9674896 C16,23.5171992 16.448,23.9633402 17,23.9633402 L31,23.9633402 C31.552,23.9633402 32,23.5171992 32,22.9674896 L32,7.03387967 C32,6.48417012 31.552,6.03802905 31,6.03802905 Z" id="Path" fill="#1976D2"></path>
                            <path d="M17.638,0.291970954 C17.41,0.102759336 17.104,0.0210995851 16.816,0.0808506224 L0.816,3.06840249 C0.342,3.15603734 0,3.5663278 0,4.0463278 L0,25.9550415 C0,26.4330498 0.342,26.845332 0.816,26.9329668 L16.816,29.9205187 C16.876,29.9324689 16.938,29.938444 17,29.938444 C17.232,29.938444 17.458,29.8587759 17.638,29.7093983 C17.868,29.5201867 18,29.2373651 18,28.9425934 L18,1.05877593 C18,0.762012448 17.868,0.481182573 17.638,0.291970954 Z" id="Path" fill="#2196F3"></path>
                            <path d="M9,21.971639 C6.244,21.971639 4,19.2908091 4,15.9965353 C4,12.7022614 6.244,10.0214315 9,10.0214315 C11.756,10.0214315 14,12.7022614 14,15.9965353 C14,19.2908091 11.756,21.971639 9,21.971639 Z M9,12.0131328 C7.346,12.0131328 6,13.7996888 6,15.9965353 C6,18.1933817 7.346,19.9799378 9,19.9799378 C10.654,19.9799378 12,18.1933817 12,15.9965353 C12,13.7996888 10.654,12.0131328 9,12.0131328 Z" id="Shape" fill="#FAFAFA"></path>
                        </g>
                    </g>
                </g>
            </g>
        </g>
    </g>
</svg>