<?xml version="1.0" encoding="UTF-8"?>
<svg width="18px" height="20px" viewBox="0 0 18 20" version="1.1" xmlns="http://www.w3.org/2000/svg" xmlns:xlink="http://www.w3.org/1999/xlink">
    <!-- Generator: Sketch 61.2 (89653) - https://sketch.com -->
    <title>icon</title>
    <desc>Created with Sketch.</desc>
    <g id="Page-1" stroke="none" stroke-width="1" fill="none" fill-rule="evenodd">
        <g id="Dashboard" transform="translate(-28.000000, -333.000000)" fill="#C8C9CC" fill-rule="nonzero">
            <g id="Side-navigation">
                <g id="Links" transform="translate(10.000000, 100.000000)">
                    <g id="Link-5" transform="translate(0.000000, 216.000000)">
                        <g id="Icon" transform="translate(15.000000, 15.000000)">
                            <path d="M8,14 L16,14 C18.6887547,14 20.8818181,16.1223067 20.9953805,18.7831104 L21,19 L21,21 C21,21.5522847 20.5522847,22 20,22 C19.4871642,22 19.0644928,21.6139598 19.0067277,21.1166211 L19,21 L19,19 C19,17.4023191 17.75108,16.0963391 16.1762728,16.0050927 L16,16 L8,16 C6.40231912,16 5.09633912,17.24892 5.00509269,18.8237272 L5,19 L5,21 C5,21.5522847 4.55228475,22 4,22 C3.48716416,22 3.06449284,21.6139598 3.00672773,21.1166211 L3,21 L3,19 C3,16.3112453 5.12230671,14.1181819 7.78311038,14.0046195 L8,14 L16,14 L8,14 Z M12,2 C14.7614237,2 17,4.23857625 17,7 C17,9.76142375 14.7614237,12 12,12 C9.23857625,12 7,9.76142375 7,7 C7,4.23857625 9.23857625,2 12,2 Z M12,4 C10.3431458,4 9,5.34314575 9,7 C9,8.65685425 10.3431458,10 12,10 C13.6568542,10 15,8.65685425 15,7 C15,5.34314575 13.6568542,4 12,4 Z" id="icon"></path>
                        </g>
                    </g>
                </g>
            </g>
        </g>
    </g>
</svg>