<?xml version="1.0" encoding="UTF-8"?>
<svg width="24px" height="20px" viewBox="0 0 24 20" version="1.1" xmlns="http://www.w3.org/2000/svg" xmlns:xlink="http://www.w3.org/1999/xlink">
    <!-- Generator: Sketch 61.2 (89653) - https://sketch.com -->
    <title>ic_upload</title>
    <desc>Created with Sketch.</desc>
    <g id="Page-1" stroke="none" stroke-width="1" fill="none" fill-rule="evenodd">
        <g id="Dashboard-_-Personal-_-Branding" transform="translate(-348.000000, -598.000000)" fill="#EC5F2A" fill-rule="nonzero">
            <g id="Block" transform="translate(260.000000, 466.000000)">
                <g id="Content" transform="translate(25.000000, 88.000000)">
                    <g id="Logo">
                        <g id="Image">
                            <g transform="translate(5.000000, 5.000000)" id="Drag-&amp;-Drop-notification">
                                <g transform="translate(25.000000, 39.002207)">
                                    <path d="M44.9202367,9.00140892 L44.9724328,8.99833514 L44.9724328,8.99833514 L45.1220821,9.00452069 L45.1220821,9.00452069 L45.2347518,9.02420367 L45.2347518,9.02420367 L45.3487132,9.05826814 L45.3487132,9.05826814 L45.428862,9.09155013 L45.428862,9.09155013 L45.5291399,9.14560985 L45.5291399,9.14560985 L45.5876476,9.18464386 L45.5876476,9.18464386 L45.63091,9.21748172 L45.63091,9.21748172 L45.7125678,9.29068618 L49.7125678,13.2906862 C50.103092,13.6812105 50.103092,14.3143754 49.7125678,14.7048997 C49.5623661,14.8551014 49.3762709,14.9475332 49.1818925,14.9821951 L49.0644924,14.9960599 L48.9464296,14.9960599 C48.7498424,14.9845059 48.5560162,14.915182 48.3925615,14.7880883 L48.2983542,14.7048997 L46.005,12.412 L46.005461,18.997793 C46.005461,19.5106288 45.6194208,19.9333001 45.1220821,19.9910652 L45.005461,19.997793 C44.4926251,19.997793 44.0699538,19.6117528 44.0121887,19.1144141 L44.005461,18.997793 L44.005,12.412 L41.7125678,14.7048997 C41.5623661,14.8551014 41.3762709,14.9475332 41.1818925,14.9821951 L41.0644924,14.9960599 L40.9464296,14.9960599 C40.7105249,14.9821951 40.4785962,14.8851417 40.2983542,14.7048997 C39.9378702,14.3444158 39.9101407,13.7771847 40.2151656,13.3848935 L40.2983542,13.2906862 L44.2983542,9.29068618 L44.3838685,9.21440215 L44.3838685,9.21440215 L44.494058,9.13817373 L44.494058,9.13817373 L44.5821991,9.09152284 L44.5821991,9.09152284 L44.6862402,9.04987923 L44.8019402,9.01860711 L44.9202367,9.00140892 Z M34.0187169,4.84127821 C35.7403264,1.53736714 39.3196001,-0.364284837 43.0211064,0.0583492857 C46.3599804,0.439578437 49.1756504,2.64089211 50.3797303,5.71586926 L50.4847221,5.99779308 L51.0061212,5.99779317 C53.7483357,5.99960367 56.1403705,7.86033676 56.8167698,10.5178219 C57.4931691,13.1753071 56.2817866,15.9532039 53.8741212,17.2657932 C53.3892151,17.5301499 52.7818175,17.3513593 52.5174608,16.8664532 C52.253104,16.3815471 52.4318946,15.7741495 52.9168007,15.5097927 C54.521911,14.6347332 55.3294993,12.782802 54.8785665,11.0111452 C54.4443348,9.30510538 52.9494999,8.09161642 51.2075103,8.00299099 L51.005461,7.99779296 L49.745461,7.99779296 C49.2895808,7.99779296 48.8914046,7.68946806 48.7772945,7.24810021 C48.0519905,4.44268813 45.6731719,2.37415398 42.7942226,2.04543855 C39.9152733,1.71672312 37.1313937,3.19578577 35.7923641,5.76549438 C34.4533344,8.335203 34.8359886,11.4642903 36.7547945,13.6356002 C37.1205135,14.0494457 37.0814992,14.6814075 36.6676537,15.0471265 C36.2538082,15.4128455 35.6218464,15.3738312 35.2561274,14.9599857 C32.7890912,12.1683016 32.2971073,8.14518929 34.0187169,4.84127821 Z" id="ic_upload"></path>
                                </g>
                            </g>
                        </g>
                    </g>
                </g>
            </g>
        </g>
    </g>
</svg>