<?xml version="1.0" encoding="UTF-8"?>
<svg width="14px" height="16px" viewBox="0 0 14 16" version="1.1" xmlns="http://www.w3.org/2000/svg" xmlns:xlink="http://www.w3.org/1999/xlink">
    <!-- Generator: Sketch 61.2 (89653) - https://sketch.com -->
    <title>icon</title>
    <desc>Created with Sketch.</desc>
    <g id="Page-1" stroke="none" stroke-width="1" fill="none" fill-rule="evenodd">
        <g id="Dashboard" transform="translate(-1158.000000, -26.000000)" fill="#58585A" fill-rule="nonzero">
            <g id="Top-bar">
                <g id="Notifications" transform="translate(1143.000000, 12.000000)">
                    <g id="Icon" transform="translate(10.000000, 10.000000)">
                        <path d="M13.1694668,17.4448028 L13.2400087,17.3516922 C13.5649869,16.9708093 14.1310419,16.8856049 14.5569691,17.1712386 C15.0156599,17.4788442 15.1381388,18.1000501 14.8305332,18.558741 C14.2251076,19.4615309 13.1478958,19.9982281 12,19.9982281 C10.8521042,19.9982281 9.77489244,19.4615309 9.16946678,18.558741 C8.86186124,18.1000501 8.98434008,17.4788442 9.44303091,17.1712386 C9.86895811,16.8856049 10.4350131,16.9708093 10.7599913,17.3516922 L10.9125808,17.5509109 C11.1523407,17.8223414 11.5548287,17.9982281 12,17.9982281 C12.4451713,17.9982281 12.8476593,17.8223414 13.0874192,17.5509109 L13.2400087,17.3516922 L13.1694668,17.4448028 Z M12,4 C14.7614237,4 17,6.23857625 17,9 C17,10.8789206 17.3354652,12.2766922 17.8778956,13.2711479 C18.1428776,13.7569482 18.382043,14.0300102 18.5145809,14.1380011 L18.6477113,14.2372047 C19.3168027,14.7932054 18.9809371,15.9024942 18.1158056,15.9939696 L18,16 L6,16 C5.05016836,16 4.65410638,14.8173794 5.35228872,14.2372047 L5.4854191,14.1380011 C5.61795705,14.0300102 5.85712245,13.7569482 6.12210443,13.2711479 C6.62837279,12.3429892 6.95435146,11.0634976 6.9955652,9.36939185 L7.00461951,8.78311038 C7.11818189,6.12230671 9.3112453,4 12,4 Z M12,6 C10.3431458,6 9,7.34314575 9,9 C9,10.9387365 8.67936366,12.5083782 8.12074309,13.741011 L7.99742619,14 L16.0025738,14 C15.3680774,12.7307296 15,11.0772177 15,9 C15,7.34314575 13.6568542,6 12,6 Z" id="icon"></path>
                    </g>
                </g>
            </g>
        </g>
    </g>
</svg>