<?xml version="1.0" encoding="UTF-8"?>
<svg width="10px" height="10px" viewBox="0 0 10 10" version="1.1" xmlns="http://www.w3.org/2000/svg" xmlns:xlink="http://www.w3.org/1999/xlink">
    <!-- Generator: Sketch 61.2 (89653) - https://sketch.com -->
    <title>ic_delete_user</title>
    <desc>Created with Sketch.</desc>
    <g id="Page-1" stroke="none" stroke-width="1" fill="none" fill-rule="evenodd">
        <g id="Dashboard-_-Personal-_-Profile" transform="translate(-1269.000000, -604.000000)" fill="#F15F22">
            <g id="Content" transform="translate(260.000000, 108.000000)">
                <g id="Personal-room-ID" transform="translate(0.000000, 470.000000)">
                    <g id="Block-title">
                        <g id="Link" transform="translate(1009.000000, 20.000000)">
                            <path d="M0.209704612,6.38710056 L0.292893219,6.29289322 C0.65337718,5.93240926 1.22060824,5.90467972 1.61289944,6.20970461 L1.70710678,6.29289322 L5,9.585 L8.29289322,6.29289322 C8.68341751,5.90236893 9.31658249,5.90236893 9.70710678,6.29289322 C10.0976311,6.68341751 10.0976311,7.31658249 9.70710678,7.70710678 L6.415,11 L9.70710678,14.2928932 C10.0675907,14.6533772 10.0953203,15.2206082 9.79029539,15.6128994 L9.70710678,15.7071068 C9.34662282,16.0675907 8.77939176,16.0953203 8.38710056,15.7902954 L8.29289322,15.7071068 L5,12.415 L1.70710678,15.7071068 C1.31658249,16.0976311 0.683417511,16.0976311 0.292893219,15.7071068 C-0.0976310729,15.3165825 -0.0976310729,14.6834175 0.292893219,14.2928932 L3.585,11 L0.292893219,7.70710678 C-0.0675907428,7.34662282 -0.0953202783,6.77939176 0.209704612,6.38710056 L0.292893219,6.29289322 L0.209704612,6.38710056 Z" id="ic_delete_user"></path>
                        </g>
                    </g>
                </g>
            </g>
        </g>
    </g>
</svg>