<?xml version="1.0" encoding="UTF-8"?>
<svg width="32px" height="32px" viewBox="0 0 32 32" version="1.1" xmlns="http://www.w3.org/2000/svg" xmlns:xlink="http://www.w3.org/1999/xlink">
    <!-- Generator: Sketch 59.1 (86144) - https://sketch.com -->
    <title>ic_chrome</title>
    <desc>Created with Sketch.</desc>
    <g id="Page-1" stroke="none" stroke-width="1" fill="none" fill-rule="evenodd">
        <g id="Dashboard-_-Personal-_-Meetings" transform="translate(-984.000000, -782.000000)" fill-rule="nonzero">
            <g id="Content" transform="translate(260.000000, 108.000000)">
                <g id="CTA" transform="translate(0.000000, 637.000000)">
                    <g id="Block-1" transform="translate(724.000000, 31.000000)">
                        <g id="ic_chrome" transform="translate(0.000000, 6.000000)">
                            <path d="M30.7679064,9.98181676 L15.9701209,9.98181676 C12.6628928,9.9785731 9.97919688,12.6569669 9.97589084,15.9641949 C9.97489279,16.9914386 10.2381287,18.001653 10.7403353,18.8977154 L3.34147368,6.20251072 C8.73051072,-0.772304094 18.7534347,-2.05779337 25.7282495,3.33124366 C27.9681871,5.06192593 29.70754,7.35725536 30.7679064,9.98181676 Z" id="Path" fill="#CC5849"></path>
                            <path d="M31.9389597,15.9701209 C31.9315712,24.7864016 24.7864016,31.9315712 15.9701209,31.9390312 C15.302425,31.9414269 14.6354152,31.8969513 13.9740195,31.8058791 L21.1599844,18.9642729 C22.8069552,16.0971228 21.8251852,12.4379571 18.9642729,10.7802573 C18.0584795,10.2558441 17.0300507,9.98031969 15.9834074,9.9818107 L30.7678441,9.9818107 C31.5449513,11.8824795 31.9427992,13.9167563 31.9389597,15.9701209 Z" id="Path" fill="#F7D05E"></path>
                            <path d="M21.1599844,18.9642729 L13.9740195,31.8058791 L13.9607329,31.8058791 C5.21606238,30.701037 -0.977216374,22.7163821 0.127625731,13.9717115 C0.485239766,11.1413021 1.59500975,8.45847953 3.34147368,6.20251072 L10.7403353,18.8977154 L10.7802573,18.9642729 C12.4302222,21.8305497 16.0913216,22.8165614 18.9575984,21.1666589 C19.8731852,20.6396257 20.6330136,19.8797973 21.1599844,18.9642729 Z" id="Path" fill="#4EA168"></path>
                            <path d="M21.1599844,18.9642729 C19.5100195,21.8305497 15.8489201,22.8165614 12.9826433,21.1666589 C12.0671189,20.6396257 11.3072904,19.8797973 10.7802573,18.9642729 L10.7403353,18.8977154 C9.1234308,16.0126628 10.1515478,12.3631033 13.0366004,10.7461988 C13.9327251,10.2439922 14.9429396,9.98075634 15.9701209,9.98174832 L15.9834074,9.98174832 C17.0300507,9.98025731 18.0584795,10.2557817 18.9642729,10.7801949 C21.8252476,12.4379571 22.8069552,16.0971228 21.1599844,18.9642729 Z" id="Path" fill="#F44336"></path>
                            <path d="M22.0669761,19.4933107 C20.1394171,22.8416715 15.8623654,23.9935222 12.5138593,22.0661197 C11.4443049,21.450444 10.556641,20.5628187 9.94093858,19.4933107 L9.89429998,19.4155588 C8.00536357,16.0452642 9.20645341,11.7818792 12.5768943,9.89302475 C13.6237852,9.30635113 14.8039606,8.99884117 16.0039573,9 L16.0194792,9 C17.2422123,8.99825822 18.4436665,9.3201235 19.5018527,9.93273871 C22.8441647,11.8693227 23.9910372,16.1439298 22.0669761,19.4933107 Z" id="Path" fill="#FFFFFF"></path>
                            <path d="M20.3335543,18.4952219 C18.9567265,20.8869082 15.9016896,21.7096587 13.5098995,20.3329427 C12.7459321,19.8931743 12.1118865,19.2591562 11.672099,18.4952219 L11.6387857,18.4396848 C10.2895454,16.0323316 11.1474667,12.9870565 13.5549245,11.6378748 C14.3027037,11.2188222 15.1456861,10.9991723 16.0028267,11 L16.0139137,11 C16.8872945,10.9987559 17.7454761,11.2286596 18.5013234,11.6662419 C20.8886891,13.0495162 21.7078837,16.102807 20.3335543,18.4952219 Z" id="Path" fill="#5B8AED"></path>
                        </g>
                    </g>
                </g>
            </g>
        </g>
    </g>
</svg>