<?xml version="1.0" encoding="UTF-8"?>
<svg width="20px" height="20px" viewBox="0 0 20 20" version="1.1" xmlns="http://www.w3.org/2000/svg" xmlns:xlink="http://www.w3.org/1999/xlink">
    <!-- Generator: Sketch 62 (91390) - https://sketch.com -->
    <title>ic_info_filled</title>
    <desc>Created with Sketch.</desc>
    <g id="Page-1" stroke="none" stroke-width="1" fill="none" fill-rule="evenodd">
        <g id="Dashboard-_-Admin-_-Create-new-user" transform="translate(-285.000000, -457.000000)">
            <g id="Content" transform="translate(260.000000, 108.000000)">
                <g id="Cards" transform="translate(0.000000, 130.000000)">
                    <g id="Card-1">
                        <g id="Notification" transform="translate(25.000000, 218.000000)">
                            <g id="Icon" transform="translate(0.000000, 1.000000)">
                                <rect id="icon-space" x="0" y="0" width="20" height="20" rx="3"></rect>
                                <path d="M10,0 C15.5228475,0 20,4.4771525 20,10 C20,15.5228475 15.5228475,20 10,20 C4.4771525,20 0,15.5228475 0,10 C0,4.4771525 4.4771525,0 10,0 Z M9.46356721,8.06008407 C9.12083004,8.06008407 8.75848597,8.11988134 8.37500152,8.23936833 C8.11934522,8.31881122 7.8559484,8.40910462 7.5844865,8.51015293 L7.17120428,8.66977961 L7,9.35572743 C7.12498022,9.31034174 7.27383923,9.26151447 7.44800097,9.21096642 C7.62139597,9.16063346 7.7915049,9.13460659 7.95701333,9.13460659 C8.29493093,9.13460659 8.5225461,9.19117739 8.64183046,9.30259821 C8.76111483,9.41434167 8.82103085,9.6130923 8.82103085,9.89723689 C8.82103085,10.054366 8.80208118,10.2289181 8.76275787,10.4186347 C8.73690744,10.545901 8.70677296,10.678043 8.67267896,10.8151242 L8.6186089,11.0244584 L7.97837279,13.2494331 C7.92141423,13.4832448 7.87979067,13.6924277 7.85361164,13.8781649 C7.82765168,14.063687 7.81516461,14.2457675 7.81516461,14.4227932 C7.81516461,14.8800918 7.98724518,15.2570512 8.33129678,15.5545318 C8.67534838,15.8508295 9.15774356,16 9.77793464,16 C10.1817927,16 10.5362502,15.9481614 10.8413071,15.8439463 C11.0444593,15.7746847 11.2940546,15.6844391 11.5896712,15.5731458 L12.0675592,15.390412 L12.2383253,14.7050019 C12.14993,14.745763 12.0074241,14.7923318 11.8120124,14.8453534 C11.6160531,14.8983751 11.4397006,14.9253699 11.2847076,14.9253699 C10.954567,14.9253699 10.7221323,14.8722407 10.5871843,14.7654445 C10.4532222,14.6586483 10.3864054,14.4577467 10.3864054,14.1634925 C10.3864054,14.0469093 10.40656,13.87311 10.4487312,13.6456438 C10.4759691,13.4929959 10.5059332,13.3516764 10.5383639,13.2216855 L10.5888274,13.0351954 L11.2263251,10.8191473 C11.2887604,10.6157721 11.3315889,10.3921776 11.3545914,10.1481488 L11.3837322,9.78896511 C11.3873425,9.72675014 11.3890951,9.67628812 11.3890951,9.63761349 C11.3890951,9.17031288 11.2222723,8.79109494 10.888517,8.49856153 C10.5547618,8.20624322 10.0794864,8.06008407 9.46356721,8.06008407 Z M10.9047954,4 C10.491634,4 10.1379575,4.14698304 9.84290384,4.44106449 C9.54785014,4.73560743 9.4,5.0899127 9.4,5.50328808 C9.4,5.91747106 9.54785014,6.27108411 9.84290384,6.56205053 C10.1384964,6.85393993 10.4915263,7 10.9047954,7 C11.3167714,7 11.6689393,6.85393993 11.9611911,6.56205053 C12.2541973,6.27119948 12.4,5.91747106 12.4,5.50328808 C12.4,5.09002807 12.2544129,4.73560743 11.9611911,4.44106449 C11.6689393,4.14732915 11.3166637,4 10.9047954,4 Z" id="icon" fill="#32C5FF"></path>
                            </g>
                        </g>
                    </g>
                </g>
            </g>
        </g>
    </g>
</svg>