<?xml version="1.0" encoding="UTF-8"?>
<svg width="22px" height="20px" viewBox="0 0 22 20" version="1.1" xmlns="http://www.w3.org/2000/svg" xmlns:xlink="http://www.w3.org/1999/xlink">
    <!-- Generator: Sketch 61.2 (89653) - https://sketch.com -->
    <title>icon</title>
    <desc>Created with Sketch.</desc>
    <g id="Page-1" stroke="none" stroke-width="1" fill="none" fill-rule="evenodd">
        <g id="Dashboard" transform="translate(-26.000000, -279.000000)" fill="#C8C9CC" fill-rule="nonzero">
            <g id="Side-navigation">
                <g id="Links" transform="translate(10.000000, 100.000000)">
                    <g id="Link-4" transform="translate(0.000000, 162.000000)">
                        <g id="Icon" transform="translate(15.000000, 15.000000)">
                            <path d="M16,22 L8,22 C7.44771525,22 7,21.5522847 7,21 C7,20.4871642 7.38604019,20.0644928 7.88337887,20.0067277 L8,20 L11,20 L11,18 L4,18 C2.34314575,18 1,16.6568542 1,15 L1,5 C1,3.34314575 2.34314575,2 4,2 L20,2 C21.6568542,2 23,3.34314575 23,5 L23,15 C23,16.6568542 21.6568542,18 20,18 L13,18 L13,20 L16,20 C16.5128358,20 16.9355072,20.3860402 16.9932723,20.8833789 L17,21 C17,21.5128358 16.6139598,21.9355072 16.1166211,21.9932723 L16,22 L8,22 L16,22 Z M20,4 L4,4 C3.44771525,4 3,4.44771525 3,5 L3,15 C3,15.5522847 3.44771525,16 4,16 L20,16 C20.5522847,16 21,15.5522847 21,15 L21,5 C21,4.44771525 20.5522847,4 20,4 Z" id="icon"></path>
                        </g>
                    </g>
                </g>
            </g>
        </g>
    </g>
</svg>