<?xml version="1.0" encoding="UTF-8"?>
<svg width="24px" height="22px" viewBox="0 0 24 22" version="1.1" xmlns="http://www.w3.org/2000/svg" xmlns:xlink="http://www.w3.org/1999/xlink">
    <!-- Generator: Sketch 61.2 (89653) - https://sketch.com -->
    <title>icon</title>
    <desc>Created with Sketch.</desc>
    <g id="Page-1" stroke="none" stroke-width="1" fill="none" fill-rule="evenodd">
        <g id="Dashboard" transform="translate(-25.000000, -170.000000)" fill="#C8C9CC" fill-rule="nonzero">
            <g id="Side-navigation">
                <g id="Links" transform="translate(10.000000, 100.000000)">
                    <g id="Link-2" transform="translate(0.000000, 54.000000)">
                        <g id="Icon" transform="translate(15.000000, 15.000000)">
                            <path d="M1,8 L19,8 C21.7614237,8 24,10.2385763 24,13 C24,15.6887547 21.8776933,17.8818181 19.2168896,17.9953805 L19,18 C19,20.7614237 16.7614237,23 14,23 L5,23 C2.23857625,23 0,20.7614237 0,18 L0,9 C0,8.44771525 0.44771525,8 1,8 L19,8 L1,8 Z M17,10 L2,10 L2,18 C2,19.6568542 3.34314575,21 5,21 L14,21 C15.6568542,21 17,19.6568542 17,18 L17,10 Z M19,10 L19,16 C20.6568542,16 22,14.6568542 22,13 C22,11.4023191 20.75108,10.0963391 19.1762728,10.0050927 L19,10 Z M5,1 C5.51283584,1 5.93550716,1.38604019 5.99327227,1.88337887 L6,2 L6,5 C6,5.55228475 5.55228475,6 5,6 C4.48716416,6 4.06449284,5.61395981 4.00672773,5.11662113 L4,5 L4,2 C4,1.44771525 4.44771525,1 5,1 Z M9,1 C9.51283584,1 9.93550716,1.38604019 9.99327227,1.88337887 L10,2 L10,5 C10,5.55228475 9.55228475,6 9,6 C8.48716416,6 8.06449284,5.61395981 8.00672773,5.11662113 L8,5 L8,2 C8,1.44771525 8.44771525,1 9,1 Z M13,1 C13.5128358,1 13.9355072,1.38604019 13.9932723,1.88337887 L14,2 L14,5 C14,5.55228475 13.5522847,6 13,6 C12.4871642,6 12.0644928,5.61395981 12.0067277,5.11662113 L12,5 L12,2 C12,1.44771525 12.4477153,1 13,1 Z" id="icon"></path>
                        </g>
                    </g>
                </g>
            </g>
        </g>
    </g>
</svg>