<?xml version="1.0" encoding="UTF-8"?>
<svg width="16px" height="16px" viewBox="0 0 16 16" version="1.1" xmlns="http://www.w3.org/2000/svg" xmlns:xlink="http://www.w3.org/1999/xlink">
    <!-- Generator: Sketch 61.2 (89653) - https://sketch.com -->
    <title>ic_calendar</title>
    <desc>Created with Sketch.</desc>
    <g id="Page-1" stroke="none" stroke-width="1" fill="none" fill-rule="evenodd">
        <g id="Dashboard-_-Personal-_-Meetings-_-Send-out-a-Meeting-_-Dropdown-Date" transform="translate(-310.000000, -425.000000)" fill="#616166" fill-rule="nonzero">
            <g id="Content" transform="translate(260.000000, 108.000000)">
                <g id="Table" transform="translate(0.000000, 130.000000)">
                    <g id="Select-box" transform="translate(25.000000, 136.000000)">
                        <path d="M35.8833789,51.0067277 L36,51 C36.5128358,51 36.9355072,51.3860402 36.9932723,51.8833789 L37,52 L37,53 L38.6666667,53 C39.9553311,53 41,54.0446689 41,55.3333333 L41,64.6666667 C41,65.9553311 39.9553311,67 38.6666667,67 L27.3333333,67 C26.0446689,67 25,65.9553311 25,64.6666667 L25,55.3333333 C25,54.0446689 26.0446689,53 27.3333333,53 L29,53 L29,52 C29,51.4871642 29.3860402,51.0644928 29.8833789,51.0067277 L30,51 C30.5128358,51 30.9355072,51.3860402 30.9932723,51.8833789 L31,52 L31,53 L35,53 L35,52 C35,51.4871642 35.3860402,51.0644928 35.8833789,51.0067277 L36,51 L35.8833789,51.0067277 Z M39,60 L27,60 L27,64.6666667 C27,64.8507616 27.1492384,65 27.3333333,65 L38.6666667,65 C38.8507616,65 39,64.8507616 39,64.6666667 L39,60 Z M29,55 L27.3333333,55 C27.1492384,55 27,55.1492384 27,55.3333333 L27,58 L39,58 L39,55.3333333 C39,55.1492384 38.8507616,55 38.6666667,55 L37,55 L37,56 C37,56.5128358 36.6139598,56.9355072 36.1166211,56.9932723 L36,57 C35.4871642,57 35.0644928,56.6139598 35.0067277,56.1166211 L35,56 L35,55 L31,55 L31,56 C31,56.5128358 30.6139598,56.9355072 30.1166211,56.9932723 L30,57 C29.4871642,57 29.0644928,56.6139598 29.0067277,56.1166211 L29,56 L29,55 Z" id="ic_calendar"></path>
                    </g>
                </g>
            </g>
        </g>
    </g>
</svg>