<?xml version="1.0" encoding="UTF-8"?>
<svg width="16px" height="16px" viewBox="0 0 16 16" version="1.1" xmlns="http://www.w3.org/2000/svg" xmlns:xlink="http://www.w3.org/1999/xlink">
    <!-- Generator: Sketch 61.2 (89653) - https://sketch.com -->
    <title>ic_clock</title>
    <desc>Created with Sketch.</desc>
    <g id="Page-1" stroke="none" stroke-width="1" fill="none" fill-rule="evenodd">
        <g id="Dashboard-_-Personal-_-Meetings-_-Send-out-a-Meeting-_-Dropdown-Date" transform="translate(-592.000000, -425.000000)" fill="#616166" fill-rule="nonzero">
            <g id="Content" transform="translate(260.000000, 108.000000)">
                <g id="Table" transform="translate(0.000000, 130.000000)">
                    <g id="Select-box" transform="translate(307.000000, 136.000000)">
                        <path d="M33,51 C37.418278,51 41,54.581722 41,59 C41,63.418278 37.418278,67 33,67 C28.581722,67 25,63.418278 25,59 C25,54.581722 28.581722,51 33,51 Z M33,53 C29.6862915,53 27,55.6862915 27,59 C27,62.3137085 29.6862915,65 33,65 C36.3137085,65 39,62.3137085 39,59 C39,55.6862915 36.3137085,53 33,53 Z M33,54 C33.5128358,54 33.9355072,54.3860402 33.9932723,54.8833789 L34,55 L34,58.0833333 L36.3846154,59.0769231 C36.8944167,59.2893403 37.1354941,59.8748141 36.9230769,60.3846154 C36.7258324,60.8580023 36.2069217,61.0996835 35.7256225,60.961721 L35.6153846,60.9230769 L32.6153846,59.6730769 C32.2800024,59.5333343 32.0498466,59.2244338 32.0071693,58.8697532 L32,58.75 L32,55 C32,54.4477153 32.4477153,54 33,54 Z" id="ic_clock"></path>
                    </g>
                </g>
            </g>
        </g>
    </g>
</svg>