<?xml version="1.0" encoding="UTF-8"?>
<svg width="64px" height="62px" viewBox="0 0 64 62" version="1.1" xmlns="http://www.w3.org/2000/svg" xmlns:xlink="http://www.w3.org/1999/xlink">
    <!-- Generator: Sketch 61.2 (89653) - https://sketch.com -->
    <title>ic_calendar_cl</title>
    <desc>Created with Sketch.</desc>
    <g id="Page-1" stroke="none" stroke-width="1" fill="none" fill-rule="evenodd">
        <g id="Dashboard-_-Personal-_-Profile" transform="translate(-1323.000000, -1190.000000)" fill-rule="nonzero">
            <g id="Content" transform="translate(260.000000, 108.000000)">
                <g id="Calendar-CTA" transform="translate(0.000000, 1039.000000)">
                    <g id="ic_calendar_cl" transform="translate(1063.000000, 43.000000)">
                        <path d="M57.1603976,0 L6.83808992,0 C5.27050435,0 4,1.24306518 4,2.77466827 L4,12 L60,12 L60,2.77466827 C60,1.24294203 58.7278571,0 57.1603976,0 Z M18.5,6 C17.6719677,6 17,5.32803227 17,4.5 C17,3.67196773 17.6719677,3 18.5,3 C19.3280323,3 20,3.67196773 20,4.5 C20,5.32803227 19.3278932,6 18.5,6 Z M46.5,6 C45.6719677,6 45,5.32803227 45,4.5 C45,3.67196773 45.6719677,3 46.5,3 C47.3280323,3 48,3.67196773 48,4.5 C48,5.32803227 47.3278932,6 46.5,6 Z" id="Shape" fill="#3E3E40"></path>
                        <path d="M63.9382692,12.9909016 L59.5,35 L4.5,35 L0.0617289734,12.9909016 C-0.339022063,10.9215727 1.26235708,9 3.39036258,9 L60.6080106,9 C62.7377661,9 64.3390203,10.9215727 63.9382692,12.9909016 Z" id="Path" fill="#CC501D"></path>
                        <path d="M58.1187091,62 L5.88115809,62 C4.20562051,62 2.88251,60.5112682 3.00828003,58.767362 L4.5,35 L34.8348712,35 L59.5,35 L60.9917103,58.767362 C61.1174804,60.5112682 59.7960944,62 58.1187091,62 Z" id="Path" fill="#F1703A"></path>
                        <path d="M32.17575,28.86325 C32.17575,24.527375 28.5475,21 24.087875,21 C19.62825,21 16,24.527375 16,28.86325 L18.696,28.86325 C18.696,26.014 21.114875,23.696 24.088,23.696 C27.061125,23.696 29.48,26.014 29.48,28.86325 C29.48,31.7125 27.061125,34.0305 24.088,34.0305 L21.57175,34.0305 L21.57175,36.7265 L24.088,36.7265 C27.061125,36.7265 29.48,39.0445 29.48,41.89375 C29.48,44.743 27.061125,47.061 24.088,47.061 C21.114875,47.061 18.696,44.743 18.696,41.89375 L16,41.89375 C16,46.229625 19.62825,49.757 24.087875,49.757 C28.5475,49.757 32.17575,46.229625 32.17575,41.89375 C32.17575,39.185875 30.7605,36.7935 28.611625,35.3785 C30.760625,33.963625 32.17575,31.571125 32.17575,28.86325 Z" id="Path" fill="#FFFFFF"></path>
                        <polygon id="Path" fill="#FFFFFF" points="37 26.7333556 38.3229702 29.0934442 43.4211407 25.845741 43.4211407 50 46 50 46 21"></polygon>
                    </g>
                </g>
            </g>
        </g>
    </g>
</svg>