<svg width="26" height="26" xmlns="http://www.w3.org/2000/svg">
 <!-- Generator: sketchtool 59.1 (101010) - https://sketch.com -->

 <title>A1902BDF-C209-4507-839A-EE494A64F843</title>
 <desc>Created with sketchtool.</desc>
 <g>
  <title>background</title>
  <rect x="-1" y="-1" width="28" height="28" id="canvas_background" fill="none"/>
 </g>
 <g>
  <title>Layer 1</title>
  <g id="Page-2" fill="none" fill-rule="evenodd" stroke-linecap="round" stroke-linejoin="round">
   <g id="Ongoing-meeting-2" stroke="#303133" stroke-width="2">
    <g id="Screen">
     <g id="Bottom-buttons">
      <g id="Centered">
       <g id="Button-/-Mic">
        <g id="ic_meeting_mic-off" transform="translate(30,30) scale(-1,1) translate(-30,-30) translate(23,18) ">
         <path d="m590,-837l0,0q3,0 3,3l0,7q0,3 -3,3l0,0q-3,0 -3,-3l0,-7q0,-3 3,-3z" id="svg_1"/>
         <path d="m597,-828l0,2c0,3.86599 -3.13401,7 -7,7c-3.86599,0 -7,-3.13401 -7,-7l0,-2" id="Rectangle"/>
         <line x1="590" y1="-819" x2="590" y2="-815" id="Path"/>
         <line x1="586" y1="-815" x2="594" y2="-815" id="Path"/>
        </g>
       </g>
      </g>
     </g>
    </g>
   </g>
  </g>
  <g id="Page-1" fill="none" fill-rule="evenodd">
   <g id="Ongoing-meeting-1">
    <g id="Screen">
     <g id="Bottom-buttons">
      <g id="Centered">
       <g id="Button-/-Mic">
        <g id="ic_crossed_line">
         <path d="m0,24.79289l0,-4.12622l20.66667,-20.66667l4.12622,0c0.27615,0 0.5,0.22386 0.5,0.5c0,0.13261 -0.05268,0.25979 -0.14644,0.35355l-24.2929,24.2929c-0.19526,0.19526 -0.51184,0.19526 -0.7071,0c-0.09377,-0.09377 -0.14645,-0.22095 -0.14645,-0.35356z" id="whitespace" fill="none"/>
         <line fill="none" x1="25" y1="1" x2="1" y2="25" id="red-line" stroke="#CC2944" stroke-width="2" stroke-linecap="round" stroke-linejoin="round"/>
        </g>
       </g>
      </g>
     </g>
    </g>
   </g>
  </g>
 </g>
</svg>