<?xml version="1.0" encoding="UTF-8"?>
<svg width="10px" height="14px" viewBox="0 0 10 14" version="1.1" xmlns="http://www.w3.org/2000/svg" xmlns:xlink="http://www.w3.org/1999/xlink">
    <!-- Generator: sketchtool 59.1 (101010) - https://sketch.com -->
    <title>F43D2983-FC63-4CDD-92AA-9358A37E2418</title>
    <desc>Created with sketchtool.</desc>
    <g id="Page-1" stroke="none" stroke-width="1" fill="none" fill-rule="evenodd">
        <g id="Ongoing-meeting-4---Settings" transform="translate(-454.000000, -412.000000)" fill="#616166" fill-rule="nonzero">
            <g id="Dropdown" transform="translate(420.000000, 100.000000)">
                <g id="Setup" transform="translate(20.000000, 274.000000)">
                    <g id="Audio-settings">
                        <g id="Micraphone" transform="translate(0.000000, 27.000000)">
                            <g id="Input">
                                <path d="M17.5,25 C17.2238576,25 17,24.7761424 17,24.5 C17,24.2238576 17.2238576,24 17.5,24 L18,24 L17.999812,22.8999437 C15.7862263,22.4505206 14.1037147,20.5387218 14.0046195,18.2168896 L14,18 C14,17.7238576 14.2238576,17.5 14.5,17.5 C14.7761424,17.5 15,17.7238576 15,18 C15,20.209139 16.790861,22 19,22 C21.209139,22 23,20.209139 23,18 C23,17.7238576 23.2238576,17.5 23.5,17.5 C23.7761424,17.5 24,17.7238576 24,18 C24,20.4185387 22.2828356,22.4360122 20.0011864,22.8997409 L20,24 L20.5,24 C20.7761424,24 21,24.2238576 21,24.5 C21,24.7761424 20.7761424,25 20.5,25 L17.5,25 Z M19,11 C20.6568542,11 22,12.3431458 22,14 L22,18 C22,19.6568542 20.6568542,21 19,21 C17.3431458,21 16,19.6568542 16,18 L16,14 C16,12.3431458 17.3431458,11 19,11 Z M19,12 C17.8954305,12 17,12.8954305 17,14 L17,18 C17,19.1045695 17.8954305,20 19,20 C20.1045695,20 21,19.1045695 21,18 L21,14 C21,12.8954305 20.1045695,12 19,12 Z" id="ic_mic_small"></path>
                            </g>
                        </g>
                    </g>
                </g>
            </g>
        </g>
    </g>
</svg>