<?xml version="1.0" encoding="UTF-8"?>
<svg width="10px" height="12px" viewBox="0 0 10 12" version="1.1" xmlns="http://www.w3.org/2000/svg" xmlns:xlink="http://www.w3.org/1999/xlink">
    <!-- Generator: sketchtool 59.1 (101010) - https://sketch.com -->
    <title>0118294B-5FCE-47ED-8E59-69FBFBA13816</title>
    <desc>Created with sketchtool.</desc>
    <g id="Page-1" stroke="none" stroke-width="1" fill="none" fill-rule="evenodd">
        <g id="Ongoing-meeting-4---Settings" transform="translate(-454.000000, -309.000000)" fill="#616166" fill-rule="nonzero">
            <g id="Dropdown" transform="translate(420.000000, 100.000000)">
                <g id="General" transform="translate(20.000000, 24.000000)">
                    <g id="Host" transform="translate(0.000000, 146.000000)">
                        <g id="Input" transform="translate(0.000000, 27.000000)">
                            <path d="M19,12 C20.6568542,12 22,13.3431458 22,15 C22,15.955808 21.5530121,16.8072163 20.8566689,17.3565922 C22.6986085,18.0929965 24,19.8945201 24,22 L24,23.5 C24,23.7761424 23.7761424,24 23.5,24 C23.2238576,24 23,23.7761424 23,23.5 L23,22 C23,19.790861 21.209139,18 19,18 C16.790861,18 15,19.790861 15,22 L15,23.5 C15,23.7761424 14.7761424,24 14.5,24 C14.2238576,24 14,23.7761424 14,23.5 L14,22 C14,19.8945201 15.3013915,18.0929965 17.1436684,17.3559354 C16.4469879,16.8072163 16,15.955808 16,15 C16,13.3431458 17.3431458,12 19,12 Z M19,13 C17.8954305,13 17,13.8954305 17,15 C17,16.1045695 17.8954305,17 19,17 C20.1045695,17 21,16.1045695 21,15 C21,13.8954305 20.1045695,13 19,13 Z" id="ic_user_host"></path>
                        </g>
                    </g>
                </g>
            </g>
        </g>
    </g>
</svg>