<?xml version="1.0" encoding="UTF-8"?>
<svg width="14px" height="12px" viewBox="0 0 14 12" version="1.1" xmlns="http://www.w3.org/2000/svg" xmlns:xlink="http://www.w3.org/1999/xlink">
    <!-- Generator: sketchtool 59.1 (101010) - https://sketch.com -->
    <title>7266A2C5-6E32-4964-A5B4-E11016E36B26</title>
    <desc>Created with sketchtool.</desc>
    <g id="Page-1" stroke="none" stroke-width="1" fill="none" fill-rule="evenodd">
        <g id="Ongoing-meeting-4---Settings" transform="translate(-452.000000, -473.000000)" fill="#616166" fill-rule="nonzero">
            <g id="Dropdown" transform="translate(420.000000, 100.000000)">
                <g id="Setup" transform="translate(20.000000, 274.000000)">
                    <g id="Audio-settings">
                        <g id="Audio" transform="translate(0.000000, 87.000000)">
                            <g id="Input">
                                <path d="M20,13 L20,23 C20,23.8909049 18.9228581,24.3370716 18.2928932,23.7071068 L15.5857864,21 L13,21 C12.4477153,21 12,20.5522847 12,20 L12,16 C12,15.4477153 12.4477153,15 13,15 L15.5857864,15 L18.2928932,12.2928932 C18.9228581,11.6629284 20,12.1090951 20,13 Z M19,13 L16,16 L13,16 L13,20 L16,20 L19,23 L19,13 Z M23.8189497,13.6149402 C26.7270168,16.0237273 26.7270168,19.9744547 23.8189497,22.3832418 C23.6062871,22.5593929 23.2910912,22.5297944 23.1149402,22.3171317 C22.9387891,22.1044691 22.9683876,21.7892732 23.1810503,21.6131222 C25.6063166,19.6042447 25.6063166,16.3939373 23.1810503,14.3850598 C22.9683876,14.2089088 22.9387891,13.8937129 23.1149402,13.6810503 C23.2910912,13.4683876 23.6062871,13.4387891 23.8189497,13.6149402 Z M21.8189497,15.6116575 C23.3936834,16.9160285 23.3936834,19.0764971 21.8189497,20.3808681 C21.6062871,20.5570192 21.2910912,20.5274207 21.1149402,20.314758 C20.9387891,20.1020953 20.9683876,19.7868995 21.1810503,19.6107485 C22.2729832,18.7062872 22.2729832,17.2862384 21.1810503,16.3817771 C20.9683876,16.2056261 20.9387891,15.8904302 21.1149402,15.6777676 C21.2910912,15.4651049 21.6062871,15.4355064 21.8189497,15.6116575 Z" id="ic_volume_small"></path>
                            </g>
                        </g>
                    </g>
                </g>
            </g>
        </g>
    </g>
</svg>