<?xml version="1.0" encoding="UTF-8"?>
<svg width="160px" height="30px" viewBox="0 0 160 30" version="1.1" xmlns="http://www.w3.org/2000/svg" xmlns:xlink="http://www.w3.org/1999/xlink">
    <!-- Generator: Sketch 61.2 (89653) - https://sketch.com -->
    <title>Logotype</title>
    <desc>Created with Sketch.</desc>
    <defs>
        <linearGradient x1="-6.86414521%" y1="87.5659062%" x2="316.017874%" y2="-205.76707%" id="linearGradient-1">
            <stop stop-color="#F16022" offset="0%"></stop>
            <stop stop-color="#F16022" offset="30%"></stop>
            <stop stop-color="#F78D28" offset="76%"></stop>
            <stop stop-color="#F99F2A" offset="100%"></stop>
        </linearGradient>
        <linearGradient x1="13.689776%" y1="199.47311%" x2="119.785079%" y2="-236.849564%" id="linearGradient-2">
            <stop stop-color="#F16022" offset="0%"></stop>
            <stop stop-color="#F16022" offset="30%"></stop>
            <stop stop-color="#F78D28" offset="76%"></stop>
            <stop stop-color="#F99F2A" offset="100%"></stop>
        </linearGradient>
        <linearGradient x1="-49.7388451%" y1="204.267486%" x2="155.838694%" y2="-69.0446406%" id="linearGradient-3">
            <stop stop-color="#F16022" offset="0%"></stop>
            <stop stop-color="#F16022" offset="30%"></stop>
            <stop stop-color="#F78D28" offset="76%"></stop>
            <stop stop-color="#F99F2A" offset="100%"></stop>
        </linearGradient>
        <linearGradient x1="-171.065065%" y1="290.942396%" x2="116.892114%" y2="-14.2684984%" id="linearGradient-4">
            <stop stop-color="#F16022" offset="0%"></stop>
            <stop stop-color="#F16022" offset="30%"></stop>
            <stop stop-color="#F78D28" offset="76%"></stop>
            <stop stop-color="#F99F2A" offset="100%"></stop>
        </linearGradient>
        <linearGradient x1="-221.883065%" y1="299.784057%" x2="41.4211978%" y2="57.9684408%" id="linearGradient-5">
            <stop stop-color="#F16022" offset="0%"></stop>
            <stop stop-color="#F16022" offset="30%"></stop>
            <stop stop-color="#F78D28" offset="76%"></stop>
            <stop stop-color="#F99F2A" offset="100%"></stop>
        </linearGradient>
        <linearGradient x1="19.4544011%" y1="66.2804747%" x2="80.5448281%" y2="33.768343%" id="linearGradient-6">
            <stop stop-color="#F16022" offset="0%"></stop>
            <stop stop-color="#F16022" offset="30%"></stop>
            <stop stop-color="#F78D28" offset="76%"></stop>
            <stop stop-color="#F99F2A" offset="100%"></stop>
        </linearGradient>
        <linearGradient x1="-463.344162%" y1="50.0088649%" x2="-563.344201%" y2="50.0088649%" id="linearGradient-7">
            <stop stop-color="#FFFFFF" offset="30%"></stop>
            <stop stop-color="#E3E4E5" offset="63%"></stop>
            <stop stop-color="#D1D3D4" offset="89%"></stop>
        </linearGradient>
    </defs>
    <g id="Symbols" stroke="none" stroke-width="1" fill="none" fill-rule="evenodd">
        <g id="Navigation" transform="translate(-145.000000, -19.000000)">
            <g id="Logotype">
                <g transform="translate(145.000000, 19.000000)">
                    <path d="M67.0543879,17.1025937 C67.0543879,17.1025937 68.0052004,17.967147 69.2394366,17.967147 C69.6728061,17.967147 70.0901408,17.8508646 70.0901408,17.5677233 C70.0901408,16.8194524 66.0702059,16.7360231 66.0702059,13.9413545 C66.0702059,12.3272334 67.6216685,11.3291066 69.6060672,11.3291066 C71.6078007,11.3291066 72.6249187,12.3108069 72.6249187,12.3108069 L71.6411701,14.3567723 C71.6411701,14.3567723 70.8073673,13.6582133 69.6043337,13.6582133 C69.1709642,13.6582133 68.7536295,13.774928 68.7536295,14.0740634 C68.7536295,14.7224784 72.7735645,14.8231988 72.7735645,17.5845821 C72.7735645,19.0487032 71.4734561,20.2962536 69.2541712,20.2962536 C67.1024919,20.2962536 65.8184182,19.0318444 65.8184182,19.0318444 L67.0543879,17.1025937 Z" id="Path" fill="#58595B" fill-rule="nonzero"></path>
                    <path d="M73.892091,11.5292507 L76.7774648,11.5292507 L76.7774648,20.0969741 L73.892091,20.0969741 L73.892091,11.5292507 Z M73.9254605,8.20072046 L76.7423619,8.20072046 L76.7423619,10.4463977 L73.9254605,10.4463977 L73.9254605,8.20072046 Z" id="Shape" fill="#58595B" fill-rule="nonzero"></path>
                    <path d="M78.4619718,11.5292507 L81.2307692,11.5292507 L81.2307692,12.2766571 C81.2301261,12.4546778 81.2189837,12.6325066 81.1973998,12.8092219 L81.2307692,12.8092219 C81.6312026,12.2100865 82.431636,11.3282421 83.7824485,11.3282421 C84.8658722,11.3282421 85.7326111,11.8110951 86.184182,12.7755043 L86.2175515,12.7755043 C86.6678223,12.0600865 87.6853738,11.3282421 88.9694475,11.3282421 C90.5373781,11.3282421 91.7547129,12.1768012 91.7547129,14.5391931 L91.7547129,20.0969741 L88.8693391,20.0969741 L88.8693391,15.0229107 C88.8693391,14.3909222 88.7527627,13.942219 88.2023835,13.942219 C87.2849404,13.942219 86.8013001,14.6074928 86.6179848,15.5559078 C86.5512459,15.8550432 86.5512459,16.2043228 86.5512459,16.5540346 L86.5512459,20.0987032 L83.6654388,20.0987032 L83.6654388,15.0229107 C83.6654388,14.3909222 83.5488624,13.942219 82.9984832,13.942219 C82.0979415,13.942219 81.6312026,14.5742075 81.4305525,15.4893372 C81.364247,15.8053314 81.3473456,16.1878963 81.3473456,16.5540346 L81.3473456,20.0987032 L78.4619718,20.0987032 L78.4619718,11.5292507 Z" id="Path" fill="#58595B" fill-rule="nonzero"></path>
                    <path d="M93.3222102,11.5292507 L95.9224269,11.5292507 L95.9224269,11.9615274 C95.9213698,12.145139 95.91023,12.328555 95.8890574,12.510951 L95.9224269,12.510951 C95.9224269,12.510951 96.7063922,11.3295389 98.5226436,11.3295389 C100.857638,11.3295389 102.392199,13.1597983 102.392199,15.8217579 C102.392199,18.5329971 100.674323,20.2966859 98.3891658,20.2966859 C96.9880823,20.2966859 96.204117,19.4814121 96.204117,19.4814121 L96.1707476,19.4814121 C96.1707476,19.4814121 96.204117,19.7809798 96.204117,20.2136888 L96.204117,23.4242075 L93.3187432,23.4242075 L93.3222102,11.5292507 Z M97.8088841,17.9174352 C98.7098592,17.9174352 99.4933911,17.1855908 99.4933911,15.8714697 C99.4933911,14.590634 98.8095341,13.7589337 97.8088841,13.7589337 C96.9421452,13.7589337 96.124377,14.3909222 96.124377,15.8714697 C96.124377,16.9020173 96.6747562,17.9174352 97.8088841,17.9174352 Z" id="Shape" fill="#58595B" fill-rule="nonzero"></path>
                    <path d="M103.379415,8.20201729 L106.264355,8.20201729 L106.264355,16.5536023 C106.264355,17.3684438 106.414735,17.651585 107.065222,17.651585 C107.248537,17.651585 107.415385,17.6347262 107.415385,17.6347262 L107.415385,20.1302594 C107.127628,20.1630036 106.838268,20.1797442 106.548646,20.1804035 C105.014518,20.1804035 103.380282,19.8142651 103.380282,16.9383285 L103.379415,8.20201729 Z" id="Path" fill="#58595B" fill-rule="nonzero"></path>
                    <path d="M108.299025,20.8789625 C108.299025,20.8789625 108.765764,21.1949568 109.182665,21.1949568 C109.649837,21.1949568 110.266089,21.0622478 110.566847,20.3304035 L110.733694,19.9309798 L107.081257,11.529683 L110.350163,11.529683 L111.617768,15.4724784 C111.767714,15.9384726 111.934561,16.8034582 111.934561,16.8034582 L111.967931,16.8034582 C111.967931,16.8034582 112.134778,15.9886167 112.251788,15.5221902 L113.335211,11.529683 L116.489707,11.529683 L112.970314,21.012536 C112.253521,22.9257925 110.752329,23.5910663 109.384615,23.5910663 C108.250488,23.5910663 107.382882,22.9923631 107.382882,22.9923631 L108.299025,20.8789625 Z" id="Path" fill="#58595B" fill-rule="nonzero"></path>
                    <path d="M116.938678,11.5292507 L119.972264,11.5292507 L121.306609,16.0876081 C121.473456,16.6365994 121.623402,17.5681556 121.623402,17.5681556 L121.656771,17.5681556 C121.656771,17.5681556 121.806717,16.6534582 121.973564,16.0876081 L123.293608,11.5292507 L126.345829,11.5292507 L123.427519,20.0969741 L119.908126,20.0969741 L116.938678,11.5292507 Z" id="Path" fill="url(#linearGradient-1)" fill-rule="nonzero"></path>
                    <path d="M127.078657,11.5292507 L129.96403,11.5292507 L129.96403,20.0969741 L127.078657,20.0969741 L127.078657,11.5292507 Z M127.112026,8.20072046 L129.928927,8.20072046 L129.928927,10.4463977 L127.112026,10.4463977 L127.112026,8.20072046 Z" id="Shape" fill="url(#linearGradient-2)" fill-rule="nonzero"></path>
                    <path d="M135.101192,11.3295389 C136.83467,11.3295389 137.352546,12.0116715 137.352546,12.0116715 L137.385915,12.0116715 C137.385915,12.0116715 137.369447,11.845245 137.369447,11.6291066 L137.369447,8.20201729 L140.254388,8.20201729 L140.254388,20.0969741 L137.551463,20.0969741 L137.551463,19.5315562 C137.551463,19.2652738 137.567931,19.0491354 137.567931,19.0491354 L137.534995,19.0491354 C137.534995,19.0491354 136.817768,20.2966859 135.049621,20.2966859 C132.714626,20.2966859 131.180065,18.4668588 131.180065,15.8048991 C131.180932,13.0932277 132.816035,11.3295389 135.101192,11.3295389 Z M135.768147,17.9174352 C136.634886,17.9174352 137.452654,17.2854467 137.452654,15.8048991 C137.452654,14.773487 136.902275,13.7589337 135.768147,13.7589337 C134.867606,13.7589337 134.08364,14.4907781 134.08364,15.8048991 C134.084507,17.0857349 134.767497,17.9174352 135.768147,17.9174352 Z" id="Shape" fill="url(#linearGradient-3)" fill-rule="nonzero"></path>
                    <path d="M145.791983,11.3295389 C148.326761,11.3295389 149.761213,13.0932277 149.761213,15.4720461 C149.761213,15.754755 149.694475,16.3707493 149.694475,16.3707493 L144.273889,16.3707493 C144.490574,17.4185879 145.357313,17.9010086 146.27519,17.9010086 C147.509426,17.9010086 148.643554,17.0364553 148.643554,17.0364553 L149.710943,19.0495677 C149.710943,19.0495677 148.326761,20.2971182 146.042037,20.2971182 C142.972914,20.2971182 141.321777,18.0842939 141.321777,15.8053314 C141.321777,13.2925072 143.022752,11.3295389 145.791983,11.3295389 Z M146.859372,14.7233429 C146.859372,14.074928 146.409101,13.4926513 145.725244,13.4926513 C144.891008,13.4926513 144.490574,14.0913545 144.338462,14.7233429 L146.859372,14.7233429 Z" id="Shape" fill="url(#linearGradient-4)" fill-rule="nonzero"></path>
                    <path d="M155.097725,11.3295389 C157.816251,11.3295389 159.984399,13.1451009 159.984399,15.8381844 C159.984399,18.5182997 157.817551,20.2966859 155.114626,20.2966859 C152.411701,20.2966859 150.244854,18.5165706 150.244854,15.8381844 C150.244854,13.1433718 152.412568,11.3295389 155.097725,11.3295389 Z M155.114626,17.9001441 C156.165114,17.9001441 157.064789,17.1181556 157.064789,15.8373199 C157.064789,14.5404899 156.164247,13.7243516 155.114626,13.7243516 C154.065005,13.7243516 153.164463,14.5396254 153.164463,15.8373199 C153.163597,17.1181556 154.062839,17.9010086 155.114626,17.9010086 L155.114626,17.9001441 Z" id="Shape" fill="url(#linearGradient-5)" fill-rule="nonzero"></path>
                    <path d="M0,14.9174352 C0,10.9365994 1.5432286,7.27262248 4.36359697,4.45893372 C7.23726977,1.59207493 11.0162514,0 14.9018418,0 C19.0526544,0 22.6184182,1.43299712 25.4925244,4.14034582 C26.5098332,5.10130838 27.3884301,6.19853087 28.1031419,7.40057637 C28.7472272,6.32980817 29.521454,5.34250476 30.408234,4.4610951 C33.2827736,1.59207493 37.0608884,0 40.9460455,0 C45.0972914,0 48.6630553,1.43299712 51.5371614,4.14034582 C54.5707476,7.00720461 56.220585,10.9353026 56.220585,14.8110951 C56.220585,19.1105187 54.783532,22.6677233 51.9094258,25.5350144 C48.9820152,28.4541787 45.3655471,29.9939481 41.052221,29.9939481 C36.6886241,29.9939481 33.1752979,28.5073487 30.2483207,25.4286744 C29.4372736,24.5909246 28.7258843,23.6625904 28.1282774,22.6621037 C27.4953328,23.7095166 26.7352382,24.6750247 25.8652221,25.5367435 C22.9382449,28.4559078 19.3213434,29.9956772 15.0080173,29.9956772 C10.643987,29.9956772 7.13109426,28.5090778 4.20455038,25.4304035 C1.43661972,22.5618156 0,18.8982709 0,14.9174352 Z" id="Path" fill="url(#linearGradient-6)"></path>
                    <path d="M10.0624052,20.5409222 C10.0624052,21.7720461 10.9464789,22.2925072 12.0273023,21.6972622 L22.2214518,16.0806916 C23.3022752,15.4854467 23.3022752,14.5110951 22.2214518,13.9158501 L12.0273023,8.2962536 C10.9464789,7.70100865 10.0624052,8.22146974 10.0624052,9.45259366 L10.0624052,20.5409222 Z" id="Path" fill="#FFFFFF" fill-rule="nonzero"></path>
                    <path d="M33.9874323,14.3178674 C33.9874323,18.2409098 37.1755992,21.421231 41.108559,21.4214697 L41.108559,24.5770893 L45.6190683,19.8134006 L45.6190683,19.8134006 C48.1812457,17.7214749 48.9598972,14.1440297 47.4980339,11.18066 C46.0361706,8.2172903 42.7195263,6.6499244 39.4946327,7.39844607 C36.2697391,8.14696774 33.9874323,11.0138686 33.9874323,14.3165706 L33.9874323,14.3178674 Z" id="Path" fill="url(#linearGradient-7)" fill-rule="nonzero"></path>
                </g>
            </g>
        </g>
    </g>
</svg>